<?xml version="1.0" encoding="UTF-8"?>
<svg width="1437" height="591" version="1.1" viewBox="0 0 380.21 156.37" xmlns="http://www.w3.org/2000/svg">
 <g fill="none" stroke="#000" stroke-width=".79375">
  <path d="m41.842 126.31 335.89 2.3781 1.2342-60.979-3.7552-34.849-65.388-0.88078-1.1554-24.221-304.7 0.11744 13.209 119.02z"/>
  <g>
   <path d="m50.245 127.36-13.183-113.09" stop-color="#000000" style="font-variation-settings:normal"/>
   <path d="m14.977 96.095 31.118 0.41103" stop-color="#000000" style="font-variation-settings:normal"/>
   <path d="m42.735 65.767-31.092 0.58718" stop-color="#000000" style="font-variation-settings:normal"/>
   <path d="m39.61 37.377-27.442-0.44039c-5.147-1.8203-4.0178-1.9671-4.0178-1.9671" stop-color="#000000" style="font-variation-settings:normal"/>
   <path d="m12.168 36.936" stop-color="#000000" style="font-variation-settings:normal"/>
   <path d="m77.653 38.147 60.065-0.40279" stop-color="#000000" style="font-variation-settings:normal"/>
   <path d="m108.04 8.2524v59.54" stop-color="#000000" style="font-variation-settings:normal"/>
   <path d="m77.595 67.793h61.882" stop-color="#000000" style="font-variation-settings:normal"/>
   <path d="m166.58 67.793 76.68 1.2037v-1.2037" stop-color="#000000" style="font-variation-settings:normal"/>
   <path d="m203.53 7.1074v60.685" stop-color="#000000" style="font-variation-settings:normal"/>
   <path d="m171.84 37.577 61.986 0.53226" stop-color="#000000" style="font-variation-settings:normal"/>
   <path d="m270.14 7.1074 1.3226 60.685" stop-color="#000000" style="font-variation-settings:normal"/>
   <path d="m264.79 67.793 44.826-8e-6" stop-color="#000000" style="font-variation-settings:normal"/>
   <path d="m270.85 37.371 38.768 0.20626" stop-color="#000000" style="font-variation-settings:normal"/>
   <path d="m172.12 11.335-0.27529 56.458" stop-color="#000000" style="font-variation-settings:normal"/>
   <path d="m77.556 11.335 0.70903 56.458" stop-color="#000000" style="font-variation-settings:normal"/>
   <path d="m139.48 11.335 0.68276 56.458" stop-color="#000000" style="font-variation-settings:normal"/>
   <path d="m233.73 11.335-0.3939 56.458" stop-color="#000000" style="font-variation-settings:normal"/>
   <path d="m323.06 67.294-1.4622 60.473" stop-color="#000000" style="font-variation-settings:normal"/>
   <path d="m378.37 66.677-56.538 0.61654" stop-color="#000000" style="font-variation-settings:normal"/>
   <path d="m29.053 7.1074-0.97163 5.9893 8.981 1.1744" stop-color="#000000" style="font-variation-settings:normal"/>
  </g>
 </g>
</svg>
