<svg id="Main_Layer" data-name="Main Layer" xmlns="http://www.w3.org/2000/svg" viewBox="0 0 1357.93 1098.31"><defs><style>.cls-1,.cls-25{fill:#f2f2f2;}.cls-1,.cls-10,.cls-11,.cls-12,.cls-13,.cls-14,.cls-15,.cls-16,.cls-17,.cls-2,.cls-20,.cls-21,.cls-22,.cls-23,.cls-24,.cls-3,.cls-4,.cls-5,.cls-6,.cls-7,.cls-8,.cls-9{stroke:#000;}.cls-1{stroke-width:1.91px;}.cls-10,.cls-11,.cls-12,.cls-13,.cls-14,.cls-15,.cls-16,.cls-17,.cls-2,.cls-22,.cls-23,.cls-24,.cls-6{fill:#b3b3b3;}.cls-2,.cls-3,.cls-4,.cls-5{stroke-width:0.48px;}.cls-3,.cls-7{fill:#c69c6d;}.cls-21,.cls-4,.cls-8{fill:none;}.cls-6,.cls-7,.cls-8,.cls-9{stroke-width:0.46px;}.cls-10{stroke-width:1.49px;}.cls-11{stroke-width:1.51px;}.cls-12{stroke-width:1.85px;}.cls-13{stroke-width:1.86px;}.cls-14{stroke-width:1.49px;}.cls-15{stroke-width:1.71px;}.cls-16{stroke-width:1.72px;}.cls-17{stroke-width:1.72px;}.cls-18{opacity:0.44;}.cls-19,.cls-20{fill:#e6e6e6;}.cls-20,.cls-21{stroke-miterlimit:10;}.cls-23{stroke-width:0.91px;}.cls-24{stroke-width:0.93px;}</style></defs><polygon id="Circulation" class="cls-1" points="46.13 0.96 1026.33 1.28 1025.76 54.3 1248.07 53.36 1248.07 1096.89 685.83 1096.89 685.82 1097.36 563.56 1097.36 563.57 1096.89 1.09 1096.89 88.25 443.01 146.86 445.01 171.04 262.02 89.41 261.87 46.13 0.96"/><g id="Stairs"><g id="_286" data-name="286"><rect id="Elevator" class="cls-2" x="1071.52" y="58.13" width="53.3" height="68.22"/><polygon id="Reception" class="cls-3" points="1243.27 112.71 1243.27 108.16 1250.67 108.16 1250.67 79.36 1243.27 79.36 1243.27 71.78 1258.07 71.78 1258.07 112.71 1243.27 112.71"/><g id="Stairs-2" data-name="Stairs"><polygon id="Stairs-3" data-name="Stairs" class="cls-2" points="1204.77 58.13 1204.77 85.42 1151.47 85.42 1151.47 99.07 1204.77 99.07 1204.77 126.36 1124.82 126.36 1124.82 58.13 1204.77 58.13"/><line class="cls-4" x1="1191.45" y1="86.18" x2="1191.45" y2="58.89"/><line class="cls-4" x1="1178.12" y1="86.18" x2="1178.12" y2="58.89"/><line class="cls-4" x1="1164.8" y1="86.18" x2="1164.8" y2="58.89"/><line class="cls-4" x1="1151.47" y1="86.18" x2="1151.47" y2="58.89"/><polyline class="cls-5" points="1138.89 112.71 1191.45 112.71 1178.12 119.53 1178.12 105.89 1191.45 112.71"/></g></g><g id="_284" data-name="284"><rect id="Elevator-2" data-name="Elevator" class="cls-6" x="517.52" y="1004.36" width="53.3" height="62"/><polygon id="Reception-2" data-name="Reception" class="cls-7" points="689.27 1053.96 689.27 1049.82 696.67 1049.82 696.67 1023.64 689.27 1023.64 689.27 1016.76 704.07 1016.76 704.07 1053.96 689.27 1053.96"/><g id="Stairs-4" data-name="Stairs"><polygon id="Stairs-5" data-name="Stairs" class="cls-6" points="650.77 1004.36 650.77 1029.16 597.47 1029.16 597.47 1041.56 650.77 1041.56 650.77 1066.36 570.82 1066.36 570.82 1004.36 650.77 1004.36"/><line class="cls-8" x1="637.45" y1="1029.85" x2="637.45" y2="1005.05"/><line class="cls-8" x1="624.12" y1="1029.85" x2="624.12" y2="1005.05"/><line class="cls-8" x1="610.8" y1="1029.85" x2="610.8" y2="1005.05"/><line class="cls-8" x1="597.47" y1="1029.85" x2="597.47" y2="1005.05"/><polyline class="cls-9" points="584.89 1053.96 637.45 1053.96 624.12 1060.16 624.12 1047.76 637.45 1053.96"/></g></g></g><g id="Elevators"><rect id="Elevator-3" data-name="Elevator" class="cls-10" x="707.83" y="258.23" width="74.85" height="51.37"/><rect id="Elevator-4" data-name="Elevator" class="cls-11" x="786.84" y="257.85" width="75.84" height="52.37"/><rect id="Elevator-5" data-name="Elevator" class="cls-12" x="1126.88" y="746.77" width="113.9" height="52.37"/><rect id="Elevator-6" data-name="Elevator" class="cls-13" x="1126.87" y="803.74" width="114.8" height="52.37"/><rect id="Elevator-7" data-name="Elevator" class="cls-14" x="626.18" y="259.13" width="75.53" height="51.27"/><rect id="Elevator-8" data-name="Elevator" class="cls-15" x="629.75" y="391.01" width="75.66" height="66.99"/><rect id="Elevator-9" data-name="Elevator" class="cls-16" x="709.76" y="391.59" width="76.54" height="67.35"/><rect id="Elevator-10" data-name="Elevator" class="cls-17" x="789.68" y="392.18" width="79.02" height="64.99"/></g><g id="Rooms" class="cls-18"><g id="_658B" data-name="658B"><rect class="cls-19" x="433.07" y="737.28" width="61.01" height="33.08"/><path d="M499.61,757.65V792h21.82s0-.07,0-.1a5.16,5.16,0,0,1-.23-1.17H501V758.92h59.62v31.81H532.49a6,6,0,0,1-.13,1.27H562V757.65Z" transform="translate(-67.93 -21.64)"/></g><g id="_658A" data-name="658A"><rect class="cls-19" x="495.07" y="737.28" width="61.01" height="33.08"/><path d="M561.61,757.65V792h27a6,6,0,0,1,0-1.27H563V758.92h59.62v31.81H599.35a5.4,5.4,0,0,1,0,1.27H624V757.65Z" transform="translate(-67.93 -21.64)"/></g><g id="_630A" data-name="630A"><path class="cls-19" d="M1013,617.31H994.88c-.12-1.34-.94-6.16-6.6-6.16h-.35v6.16H963.56V568.67H1013Z" transform="translate(-67.93 -21.64)"/><path d="M963.56,569.35h48.74v48H994.84c-.23-1.73-1.34-6.16-6.91-6.16h-.69v6.16H963.56v-48m-.7-.68V618h25.07v-6.17c6.27,0,6.27,6.17,6.27,6.17H1013V568.67Z" transform="translate(-67.93 -21.64)"/></g><g id="_662" data-name="662"><path class="cls-19" d="M440,1007.25H420.43c-.13-1.48-1-6.8-7.12-6.8h-.38v6.8H386.61V953.67H440Z" transform="translate(-67.93 -21.64)"/><path d="M386.61,954.42h52.64v52.83H420.39c-.24-1.92-1.45-6.8-7.46-6.8h-.75v6.8H386.61V954.42m-.75-.75V1008h27.07v-6.79c6.77,0,6.77,6.79,6.77,6.79H440V953.67Z" transform="translate(-67.93 -21.64)"/></g><g id="_664" data-name="664"><path class="cls-19" d="M381,1009.22H360.71c-.14-1.54-1-7-7.39-7h-.39v7H325.64V953.67H381Z" transform="translate(-67.93 -21.64)"/><path d="M325.64,954.45h54.58v54.77H360.67c-.26-2-1.51-7-7.74-7h-.78v7H325.64V954.45m-.78-.78V1010h28.07v-7c7,0,7,7,7,7H381V953.67Z" transform="translate(-67.93 -21.64)"/></g><g id="_668B" data-name="668B"><path class="cls-19" d="M252,958.9V944.48c1.91-.1,8.75-.75,8.75-5.25V939H252v-19.4h69V958.9Z" transform="translate(-67.93 -21.64)"/><path d="M320,919.55v38.8H252v-13.9c2.46-.18,8.75-1.07,8.75-5.5v-.55H252V919.55H320m1-.55H251v20h8.75c0,5-8.75,5-8.75,5v15h70V919Z" transform="translate(-67.93 -21.64)"/></g><g id="_668A" data-name="668A"><path class="cls-19" d="M252,1008.9V994.48c1.91-.1,8.75-.75,8.75-5.25V989H252v-19.4h69v39.35Z" transform="translate(-67.93 -21.64)"/><path d="M320,969.55v38.8H252v-13.9c2.46-.18,8.75-1.07,8.75-5.5v-.55H252V969.55H320m1-.55H251v20h8.75c0,5-8.75,5-8.75,5v15h70V969Z" transform="translate(-67.93 -21.64)"/></g><g id="_647" data-name="647"><path class="cls-19" d="M964,747.05h82.83v98h-30.36c-.2-2.7-1.57-12.42-11.05-12.42h-.59V845H964Z" transform="translate(-67.93 -21.64)"/><path d="M1046.83,843.62h-29.26c-.37-3.49-2.25-12.42-11.57-12.42h-1.17v12.42H965.17V747.05h81.66v96.57M1048,845V745.67H964V845h42V832.58c10.5,0,10.5,12.42,10.5,12.42Z" transform="translate(-67.93 -21.64)"/></g><g id="_637" data-name="637"><path class="cls-19" d="M1049.84,844V747.36H1086v35.43c-1,.23-4.58,1.83-4.58,12.89v.68H1086V844Z" transform="translate(-67.93 -21.64)"/><path d="M1085.49,747.36V781.5c-1.29.44-4.58,2.62-4.58,13.5v1.36h4.58v46.28h-35.65V747.36h35.65M1086,746h-36.67v98H1086V795h-4.58c0-12.25,4.58-12.25,4.58-12.25V746Z" transform="translate(-67.93 -21.64)"/></g><g id="_629" data-name="629"><path class="cls-19" d="M874,547.88h82.83V634H926.47c-.2-2.38-1.57-10.92-11.05-10.92h-.59V634H874Z" transform="translate(-67.93 -21.64)"/><path d="M956.83,632.79H927.57c-.37-3.08-2.25-10.92-11.57-10.92h-1.17v10.92H875.17V547.88h81.66v84.91M958,634V546.67H874V634h42V623.08c10.5,0,10.5,10.92,10.5,10.92Z" transform="translate(-67.93 -21.64)"/></g><g id="_11116" data-name="11116"><path class="cls-19" d="M628,758.91h63.11V847H668c-.16-2.43-1.2-11.17-8.42-11.17h-.45V847H628Z" transform="translate(-67.93 -21.64)"/><path d="M691.11,845.76H668.82c-.29-3.14-1.72-11.17-8.82-11.17h-.89v11.17H628.89V758.91h62.22v86.85M692,847V757.67H628V847h32V835.83c8,0,8,11.17,8,11.17Z" transform="translate(-67.93 -21.64)"/></g><g id="_6137" data-name="6137"><path class="cls-19" d="M1075.56,418v15.38c-2.83.1-13,.8-13,5.6v.3h13V460H973V418Z" transform="translate(-67.93 -21.64)"/><path d="M974.44,460V418.59h101.12v14.82c-3.66.19-13,1.14-13,5.87v.59h13V460H974.44m-1.44.59h104V439.28h-13c0-5.32,13-5.32,13-5.32V418H973v42.55Z" transform="translate(-67.93 -21.64)"/></g><rect id="_6131" data-name="6131" class="cls-19" x="280.07" y="615.36" width="35" height="30"/><g id="_6130" data-name="6130"><path class="cls-19" d="M676.19,526.33v53.91H500V542c4.86-.13,22.33-1,22.33-7.19v-.38H500v-8.07Z" transform="translate(-67.93 -21.64)"/><path d="M502.48,580.24V542.69c6.29-.25,22.33-1.47,22.33-7.53v-.76H502.48v-7.31H676.19v53.15H502.48M500,581H678.67V526.33H500v8.83h22.33C522.33,542,500,542,500,542v39Z" transform="translate(-67.93 -21.64)"/></g><g id="_6129" data-name="6129"><path class="cls-19" d="M501.13,523l-.9-24.26c4.22-.27,19.66-1.8,19.41-9.59l0-.48-19.73.71-1.22-33.14L682,443.14V523Z" transform="translate(-67.93 -21.64)"/><path d="M678.92,443.36,679,521.9l-177.87.17-.87-23.38c5.45-.45,19.64-2.36,19.39-10l0-1-2.24.08-17.23.64h-.27l-1.18-32.2,180.25-12.88M682,442,496.48,455.45l1.27,34,19.64-.7c.28,8.61-19.33,9.13-19.33,9.13L499,523H682V442Z" transform="translate(-67.93 -21.64)"/></g><rect id="_6126" data-name="6126" class="cls-19" x="242.07" y="789.36" width="51" height="41"/><rect id="_6122" data-name="6122" class="cls-19" x="719.07" y="652.36" width="47" height="82"/><g id="_6121" data-name="6121"><path class="cls-19" d="M442.34,899v18.07c-3.24.12-14.91.94-14.91,6.58V924h14.91v24.31H324.69V899Z" transform="translate(-67.93 -21.64)"/><path d="M326.35,948.31V899.69h116v17.42c-4.19.23-14.91,1.34-14.91,6.89v.69h14.91v23.62h-116m-1.66.69H444V924H429.09c0-6.25,14.91-6.25,14.91-6.25V899H324.69v50Z" transform="translate(-67.93 -21.64)"/></g><g id="_6114" data-name="6114"><path class="cls-19" d="M1027,882.22h31.09c.2,2.4,1.61,11,11.31,11h.6v-11h41.81v87H1027Z" transform="translate(-67.93 -21.64)"/><path d="M1111.81,968h-83.62V882.22h30c.39,3.11,2.31,11,11.85,11h1.19v-11h40.62V968m1.19,1.23V881h-43v11c-10.75,0-10.75-11-10.75-11H1027v88.18Z" transform="translate(-67.93 -21.64)"/></g><g id="_6113" data-name="6113"><path class="cls-19" d="M940,882.22h31.09c.2,2.4,1.61,11,11.31,11h.6v-11h41.81v87H940Z" transform="translate(-67.93 -21.64)"/><path d="M1024.81,968H941.19V882.22h30c.39,3.11,2.31,11,11.85,11h1.19v-11h40.62V968m1.19,1.23V881H983v11c-10.75,0-10.75-11-10.75-11H940v88.18Z" transform="translate(-67.93 -21.64)"/></g><g id="_6112" data-name="6112"><path class="cls-19" d="M1162,1093.93H1036.76V1018h88.91c.3,2.1,2.38,9.63,16.71,9.63h.88V1018H1162Z" transform="translate(-67.93 -21.64)"/><path d="M1036.76,1019.07H1124c.57,2.71,3.41,9.62,17.5,9.62h1.76v-9.62h17v74.86H1036.76v-74.86M1035,1018v77h127v-77h-20.5v9.63c-15.87,0-15.87-9.63-15.87-9.63Z" transform="translate(-67.93 -21.64)"/></g><g id="_6111" data-name="6111"><path class="cls-19" d="M1295.86,967.33v125.24H1167.33v-88.91c3.55-.3,16.3-2.38,16.3-16.71v-.88h-16.3V967.33Z" transform="translate(-67.93 -21.64)"/><path d="M1169.14,1092.57v-87.24c4.59-.57,16.3-3.4,16.3-17.5v-1.76h-16.3v-17h126.72v123.47H1169.14m-1.81,1.76h130.34v-127H1167.33v20.5h16.3c0,15.88-16.3,15.88-16.3,15.88v90.62Z" transform="translate(-67.93 -21.64)"/></g><g id="_6110" data-name="6110"><path class="cls-19" d="M413,1113.22H292.69V1058H378.1c.29,1.52,2.29,7,16,7H395v-7h18Z" transform="translate(-67.93 -21.64)"/><path d="M292.69,1058.78H376.5c.55,2,3.27,7,16.81,7H395v-7h16.31v54.44H292.69v-54.44M291,1058v56H413v-56H393.31v7c-15.25,0-15.25-7-15.25-7Z" transform="translate(-67.93 -21.64)"/></g><g id="_6109" data-name="6109"><path class="cls-19" d="M187,1058h14.46v7h.68c11.06,0,12.66-5.48,12.89-7h68.61v55.22H187Z" transform="translate(-67.93 -21.64)"/><path d="M283.64,1058.78v54.44H188.36v-54.44h13.1v7h1.36c10.87,0,13.06-5,13.5-7h67.32M285,1058H215.07s0,7-12.25,7v-7H187v56h98v-56Z" transform="translate(-67.93 -21.64)"/></g><g id="_6108" data-name="6108"><path class="cls-19" d="M185,993v15.56H172.9v.75c-.23,12.43,9.42,14.26,12.11,14.53V1113H74.84L91.73,993Z" transform="translate(-67.93 -21.64)"/><path d="M183.45,1113H74.84L91.53,994.43h92.15l0,14.13h-12.1l0,1.5c-.25,12.24,8.61,14.76,12.09,15.27l-.17,87.67m1.55,2v-91.12s-12.37,0-12.13-13.82H185V993H90.42L73,1115Z" transform="translate(-67.93 -21.64)"/></g><g id="_6107" data-name="6107"><path class="cls-19" d="M186,922v9.08l-10.94,0v.44c-.12,7.12,8.54,8.15,10.95,8.3V988H92.45l8.67-65.75Z" transform="translate(-67.93 -21.64)"/><path d="M184.68,988H92.45L101,923.07l83.79-.22,0,8.23h-.15l-9.57,0h-1.22V932c-.14,7,7.81,8.43,10.94,8.71L184.68,988m1.32,1V939.86s-11.09,0-11-7.89l11,0V922l-86.07.23L91,989Z" transform="translate(-67.93 -21.64)"/></g><g id="_6106" data-name="6106"><path class="cls-19" d="M365.12,885V796.25H444.5v63c-2.19.21-10.06,1.68-10.06,11.84v.62H444.5V885Z" transform="translate(-67.93 -21.64)"/><path d="M444.5,859.22V795H364v51.09a7,7,0,0,1,1.12-.09V796.25h78.26v61.82c-2.83.41-10.06,2.41-10.06,12.4v1.25h10.06v12H396.32a4.66,4.66,0,0,1-.14,1.25H444.5V870.47H434.44C434.44,859.22,444.5,859.22,444.5,859.22Z" transform="translate(-67.93 -21.64)"/></g><g id="_6105" data-name="6105"><polygon class="cls-19" points="206.96 771.4 301.19 771.41 301.19 824.3 199 824.07 206.96 771.4"/><path d="M270.46,822.35l4.43-29.3h24.39a2.16,2.16,0,0,1-.5-1.06,1.31,1.31,0,0,1,.14-.8H273l-4.79,31A6.3,6.3,0,0,1,270.46,822.35Z" transform="translate(-67.93 -21.64)"/><path d="M355.94,791.19a1.88,1.88,0,0,1-.13,1.87H367l-.17,50.68-30.69-.07a1.64,1.64,0,0,1,0,2.2l33,.08V791.19Z" transform="translate(-67.93 -21.64)"/></g><g id="_6104" data-name="6104"><path class="cls-19" d="M1071.45,494.18v22.71c-3,.15-13.91,1.17-13.91,8.26v.44h13.91v30.54H961.69V494.18Z" transform="translate(-67.93 -21.64)"/><path d="M963.24,556.13V495.05h108.21v21.89c-3.91.28-13.91,1.68-13.91,8.65v.87h13.91v29.67H963.24m-1.55.87H1073V525.59h-13.91c0-7.85,13.91-7.85,13.91-7.85V494.18H961.69V557Z" transform="translate(-67.93 -21.64)"/></g><g id="_6103" data-name="6103"><path class="cls-19" d="M633.64,262V239.09c3.21-.15,14.75-1.18,14.75-8.34v-.44H633.64v-30.8H750V262Z" transform="translate(-67.93 -21.64)"/><path d="M748.36,199.51v61.61H633.64V239c4.15-.28,14.75-1.69,14.75-8.73v-.88H633.64V199.51H748.36m1.64-.88H632v31.68h14.75c0,7.93-14.75,7.93-14.75,7.93V262H750V198.63Z" transform="translate(-67.93 -21.64)"/></g><g id="_6101" data-name="6101"><rect class="cls-19" x="318.41" y="580.72" width="58.67" height="44.64"/><path d="M443.67,602.36v42.92H386.33V602.36h57.34m1.33-1.71H385V647h60V600.65Z" transform="translate(-67.93 -21.64)"/></g><g id="_6100" data-name="6100"><path class="cls-19" d="M381,697.45h63.11V753H421c-.16-1.53-1.2-7-8.42-7h-.45v7H381Z" transform="translate(-67.93 -21.64)"/><path d="M444.11,752.22H421.82c-.29-2-1.72-7-8.82-7h-.89v7H381.89V697.45h62.22v54.77m.89.78V696.67H381V753h32v-7c8,0,8,7,8,7Z" transform="translate(-67.93 -21.64)"/></g><g id="_6099" data-name="6099"><path class="cls-19" d="M519,581.41h80.86V634H570.22c-.2-1.45-1.53-6.67-10.79-6.67h-.57V634H519Z" transform="translate(-67.93 -21.64)"/><path d="M599.86,633.26H571.3c-.37-1.88-2.2-6.67-11.3-6.67h-1.14v6.67H520.14V581.41h79.72v51.85M601,634V580.67H519V634h41v-6.67c10.25,0,10.25,6.67,10.25,6.67Z" transform="translate(-67.93 -21.64)"/></g><g id="_6098" data-name="6098"><path class="cls-19" d="M605,581.41h75.93V634H653.1c-.19-1.45-1.44-6.67-10.13-6.67h-.54V634H605Z" transform="translate(-67.93 -21.64)"/><path d="M680.93,633.26H654.11c-.35-1.88-2.07-6.67-10.61-6.67h-1.07v6.67H606.07V581.41h74.86v51.85M682,634V580.67H605V634h38.5v-6.67c9.62,0,9.62,6.67,9.62,6.67Z" transform="translate(-67.93 -21.64)"/></g><g id="_6097" data-name="6097"><path class="cls-19" d="M1067,616.31h-18.12c-.12-1.34-.94-6.16-6.6-6.16h-.35v6.16h-24.37V567.67H1067Z" transform="translate(-67.93 -21.64)"/><path d="M1017.56,568.35h48.74v48h-17.46c-.23-1.73-1.34-6.16-6.91-6.16h-.69v6.16h-23.68v-48m-.7-.68V617h25.07v-6.17c6.27,0,6.27,6.17,6.27,6.17H1067V567.67Z" transform="translate(-67.93 -21.64)"/></g><g id="_659" data-name="659"><path class="cls-19" d="M784.9,971l.1,47-287.62.58-.07-33.4c7.94-.13,36.46-1,36.45-6.35v-.33l-36.46.08v-7Z" transform="translate(-67.93 -21.64)"/><path d="M501.43,1018.62l-.06-32.77c10.26-.23,36.45-1.35,36.44-6.64v-.67h-4l-31.9.07h-.51v-6.38l283.56-.57.1,46.38-283.57.57m-4.05.67,291.67-.58L789,971l-291.66.59v7.7l36.46-.07c0,6-36.45,6-36.45,6l.07,34Z" transform="translate(-67.93 -21.64)"/></g><g id="_645" data-name="645"><path class="cls-19" d="M1028,1093.93H957V1018h50.41c.17,2.1,1.34,9.63,9.47,9.63h.5V1018H1028Z" transform="translate(-67.93 -21.64)"/><path d="M957,1019.07h49.46c.32,2.71,1.93,9.62,9.92,9.62h1v-9.62H1027v74.86H957v-74.86m-1-1.07v77h72v-77h-11.62v9.63c-9,0-9-9.63-9-9.63Z" transform="translate(-67.93 -21.64)"/></g><g id="_636" data-name="636"><path class="cls-19" d="M965.64,742V692.69H1082v35c-3.21.12-14.75.93-14.75,6.58v.34H1082V742Z" transform="translate(-67.93 -21.64)"/><path d="M1080.36,692.69V727c-4.15.22-14.75,1.34-14.75,6.89v.69h14.75v6.69H965.64V692.69h114.72M1082,692H964v50h118v-8.07h-14.75c0-6.25,14.75-6.25,14.75-6.25V692Z" transform="translate(-67.93 -21.64)"/></g><g id="_614" data-name="614"><path class="cls-19" d="M681.44,315.31H631.15V297.23c1.39-.12,6.37-.93,6.37-6.58v-.34h-6.37V266h50.29Z" transform="translate(-67.93 -21.64)"/><path d="M631.15,266.69h49.58v48.62H631.15V297.89c1.79-.23,6.37-1.34,6.37-6.89v-.69h-6.37V266.69m-.71-.69v25h6.38c0,6.25-6.38,6.25-6.38,6.25V316h51V266Z" transform="translate(-67.93 -21.64)"/></g><g id="_617" data-name="617"><path class="cls-19" d="M880.82,264V199.9h21.33c.14,1.77,1.1,8.13,7.76,8.13h.41V199.9H939V264Z" transform="translate(-67.93 -21.64)"/><path d="M938.18,199.9v63.2H880.82V199.9h20.55c.27,2.29,1.58,8.13,8.13,8.13h.82V199.9h27.86m.82-.9H909.5v8.12c-7.38,0-7.38-8.12-7.38-8.12H880v65h59V199Z" transform="translate(-67.93 -21.64)"/></g><g id="_6096" data-name="6096"><path class="cls-19" d="M944.54,261V199.86h40.13c.26,1.69,2.07,7.75,14.6,7.75h.77v-7.75h54V261Z" transform="translate(-67.93 -21.64)"/><path d="M1052.46,199.86v60.28H944.54V199.86h38.67c.49,2.18,3,7.75,15.29,7.75H1000v-7.75h52.42M1054,199H998.5v7.75c-13.88,0-13.88-7.75-13.88-7.75H943v62h111V199Z" transform="translate(-67.93 -21.64)"/></g><g id="_6095" data-name="6095"><path class="cls-19" d="M1139.18,258V220.7c4.88-.24,22.42-1.93,22.42-13.57v-.72h-22.42V156.26H1316V258Z" transform="translate(-67.93 -21.64)"/><path d="M1313.51,156.26V256.57H1139.18V220.63c6.31-.47,22.42-2.77,22.42-14.22V205h-22.42V156.26h174.33m2.49-1.43H1136.69v51.58h22.42c0,12.9-22.42,12.9-22.42,12.9V258H1316V154.83Z" transform="translate(-67.93 -21.64)"/></g><g id="_6094" data-name="6094"><path class="cls-19" d="M754.63,259V208.71H774.2a6.66,6.66,0,0,0,7.12,6.37h.37v-6.37H808V259Z" transform="translate(-67.93 -21.64)"/><path d="M807.25,208.71v49.58H754.63V208.71h18.86c.24,1.79,1.45,6.37,7.45,6.37h.75v-6.37h25.56M808,208H780.94v6.38c-6.76,0-6.76-6.38-6.76-6.38h-20.3v51H808V208Z" transform="translate(-67.93 -21.64)"/></g><g id="_6093" data-name="6093"><path class="cls-19" d="M821.63,258V207.71H841.2a6.66,6.66,0,0,0,7.12,6.37h.37v-6.37H875V258Z" transform="translate(-67.93 -21.64)"/><path d="M874.25,207.71v49.58H821.63V207.71h18.86c.24,1.79,1.45,6.37,7.45,6.37h.75v-6.37h25.56M875,207H847.94v6.38c-6.76,0-6.76-6.38-6.76-6.38h-20.3v51H875V207Z" transform="translate(-67.93 -21.64)"/></g><g id="_6092" data-name="6092"><path class="cls-19" d="M471.63,261V210.71H491.2a6.66,6.66,0,0,0,7.12,6.37h.37v-6.37H525V261Z" transform="translate(-67.93 -21.64)"/><path d="M524.25,210.71v49.58H471.63V210.71h18.86c.24,1.79,1.45,6.37,7.45,6.37h.75v-6.37h25.56M525,210H497.94v6.38c-6.76,0-6.76-6.38-6.76-6.38h-20.3v51H525V210Z" transform="translate(-67.93 -21.64)"/></g><g id="_6091" data-name="6091"><path class="cls-19" d="M412.63,261V210.71H432.2a6.66,6.66,0,0,0,7.12,6.37h.37v-6.37H466V261Z" transform="translate(-67.93 -21.64)"/><path d="M465.25,210.71v49.58H412.63V210.71h18.86c.24,1.79,1.45,6.37,7.45,6.37h.75v-6.37h25.56M466,210H438.94v6.38c-6.76,0-6.76-6.38-6.76-6.38h-20.3v51H466V210Z" transform="translate(-67.93 -21.64)"/></g><g id="_6090" data-name="6090"><path class="cls-19" d="M309.13,199.69l43-.54c.24,2.26,1.74,10.36,11.11,10.19h.57l-.19-10.39L404,198.2l1.5,81.91-81.82,1.5Z" transform="translate(-67.93 -21.64)"/><path d="M405.43,279l-80.67,1.47-15.48-80.76,42.9-.52c.43,2.92,2.42,10.34,11.62,10.18l1.16,0,0-1.15-.17-9.08v-.15L404,198.2,405.43,279m1.17,1.13L405.08,197l-41.49.76.19,10.38c-10.37.19-10.56-10.19-10.56-10.19l-46.11.56,16.52,83.07,83-1.52Z" transform="translate(-67.93 -21.64)"/></g><g id="_6089" data-name="6089"><path class="cls-19" d="M319.09,469.89l17.64-1.33-1.32,10.27.85-.06c14-.94,17-9.23,17.52-11.5l94.2-7.12-.22,96.22-141.56.29Z" transform="translate(-67.93 -21.64)"/><path d="M448,461.37l-.22,95L308,556.65l12.58-85.76,16-1.2,0,.14-1.16,9-.15,1.15,1.71-.11c13.82-.92,17.46-8.62,18.33-11.58L448,461.37m2-1.37-96.17,7.27s-1.14,10.4-16.71,11.44l1.3-10.28-19.33,1.46L306,558l144-.13V460Z" transform="translate(-67.93 -21.64)"/></g><g id="_6088" data-name="6088"><polygon class="cls-19" points="194.13 823.57 297.07 823.36 297.07 875.39 195.85 874.52 194.13 823.57"/><path d="M263.84,894.17h-.07l-1-29.16a6.93,6.93,0,0,1-2.27.12l1.07,30.94,2.19,0A5.63,5.63,0,0,1,263.84,894.17Z" transform="translate(-67.93 -21.64)"/><path d="M362.61,847v.21A5.88,5.88,0,0,1,365,847v-2l-33.63.07a1.39,1.39,0,0,1-.1,2Z" transform="translate(-67.93 -21.64)"/></g><g id="_6087" data-name="6087"><path class="cls-19" d="M187,818v13.26h-9.4v.64c-.17,10.6,7.32,12.16,9.41,12.39v76H101.43L114.55,818Z" transform="translate(-67.93 -21.64)"/><path d="M185.79,920.29H101.43l13-101.07H186l0,12h-9.4l0,1.28c-.19,10.44,6.69,12.59,9.4,13l-.14,74.73M187,922V844.33s-9.61,0-9.42-11.79H187V818H113.53L100,922Z" transform="translate(-67.93 -21.64)"/></g><g id="_6086" data-name="6086"><path class="cls-19" d="M972.4,345.58l.58-68.8,106.73,0-19.32,32.72c-2.49.19-11.72,1.43-15.77,9.25l-.23.45,10.31-.06L1039.43,345Z" transform="translate(-67.93 -21.64)"/><path d="M1078.23,276.76l-18.49,31.74c-3.3.36-12.1,2.05-16,9.78l-.46.91h1.15l9-.05h.14l-14.71,25.26-66.43.58.57-68.19,105.25,0m2.39-1.54H971.45v70.37l68-.6,15.8-26.78-10.37.06c4.54-8.77,15.55-8.82,15.55-8.82l20.21-34.23Z" transform="translate(-67.93 -21.64)"/></g><g id="_6085" data-name="6085"><path class="cls-19" d="M950,971.33v18.74H930V991c0,14.33,15.65,16.41,20,16.71v88.91H792.22V971.33Z" transform="translate(-67.93 -21.64)"/><path d="M947.78,1096.57H792.22V973.1H947.78v17h-20v1.76c0,14.1,14.37,16.93,20,17.5v87.24m2.22,1.76v-90.62s-20,0-20-15.88h20v-20.5H790v127Z" transform="translate(-67.93 -21.64)"/></g><g id="_6084" data-name="6084"><path class="cls-19" d="M645.37,968.76H500.05V880.92h53.27c.35,2.43,2.76,11.14,19.39,11.14h1V880.92h71.64Z" transform="translate(-67.93 -21.64)"/><path d="M500.05,882.16h51.33c.66,3.13,4,11.13,20.31,11.13h2V882.16h69.6v86.6H500.05v-86.6M498,880.92V970H645.37V880.92H571.69v11.14c-18.43,0-18.43-11.14-18.43-11.14Z" transform="translate(-67.93 -21.64)"/></g><g id="_6083" data-name="6083"><path class="cls-19" d="M791.37,968.76H646.05V880.92h53.27c.35,2.43,2.76,11.14,19.39,11.14h1V880.92h71.64Z" transform="translate(-67.93 -21.64)"/><path d="M646.05,882.16h51.33c.66,3.13,4,11.13,20.31,11.13h2V882.16h69.6v86.6H646.05v-86.6m-2-1.24V970H791.37V880.92H717.69v11.14c-18.43,0-18.43-11.14-18.43-11.14Z" transform="translate(-67.93 -21.64)"/></g><g id="_6082" data-name="6082"><path class="cls-19" d="M938.37,968.76H793.05V880.92h53.27c.35,2.43,2.76,11.14,19.39,11.14h1V880.92h71.64Z" transform="translate(-67.93 -21.64)"/><path d="M793.05,882.16h51.33c.66,3.13,4,11.13,20.31,11.13h2V882.16h69.6v86.6H793.05v-86.6m-2-1.24V970H938.37V880.92H864.69v11.14c-18.43,0-18.43-11.14-18.43-11.14Z" transform="translate(-67.93 -21.64)"/></g><g id="_6081" data-name="6081"><path class="cls-19" d="M874,758.88h82.83V845H926.47c-.2-2.38-1.57-10.92-11.05-10.92h-.59V845H874Z" transform="translate(-67.93 -21.64)"/><path d="M956.83,843.79H927.57c-.37-3.08-2.25-10.92-11.57-10.92h-1.17v10.92H875.17V758.88h81.66v84.91M958,845V757.67H874V845h42V834.08c10.5,0,10.5,10.92,10.5,10.92Z" transform="translate(-67.93 -21.64)"/></g><g id="_6080" data-name="6080"><path class="cls-19" d="M786,758.88h82.83V845H838.47c-.2-2.38-1.57-10.92-11.05-10.92h-.59V845H786Z" transform="translate(-67.93 -21.64)"/><path d="M868.83,843.79H839.57c-.37-3.08-2.25-10.92-11.57-10.92h-1.17v10.92H787.17V758.88h81.66v84.91M870,845V757.67H786V845h42V834.08c10.5,0,10.5,10.92,10.5,10.92Z" transform="translate(-67.93 -21.64)"/></g><g id="_6079" data-name="6079"><path class="cls-19" d="M696,759.88h82.83V846H748.47c-.2-2.38-1.57-10.92-11.05-10.92h-.59V846H696Z" transform="translate(-67.93 -21.64)"/><path d="M778.83,844.79H749.57c-.37-3.08-2.25-10.92-11.57-10.92h-1.17v10.92H697.17V759.88h81.66v84.91M780,846V758.67H696V846h42V835.08c10.5,0,10.5,10.92,10.5,10.92Z" transform="translate(-67.93 -21.64)"/></g><g id="_6078" data-name="6078"><path class="cls-19" d="M961.37,754.83h-170V672h62.32c.4,2.29,3.22,10.5,22.67,10.5h1.2V672h83.79Z" transform="translate(-67.93 -21.64)"/><path d="M791.39,673.17h60.05c.77,3,4.62,10.5,23.75,10.5h2.39v-10.5H959v81.66H791.39V673.17M789,672v84H961.37V672H875.19v10.5c-21.55,0-21.55-10.5-21.55-10.5Z" transform="translate(-67.93 -21.64)"/></g><g id="_6077" data-name="6077"><path class="cls-19" d="M589,754.82H502.22V671H534c.21,2.31,1.65,10.63,11.58,10.63h.61V671H589Z" transform="translate(-67.93 -21.64)"/><path d="M502.22,672.18h30.66c.39,3,2.35,10.63,12.12,10.63h1.22V672.18h41.56v82.64H502.22V672.18M501,671v85h88V671H545v10.63c-11,0-11-10.63-11-10.63Z" transform="translate(-67.93 -21.64)"/></g><g id="_6076" data-name="6076"><path class="cls-19" d="M679,754.82H592.22V671H624c.21,2.31,1.65,10.63,11.58,10.63h.61V671H679Z" transform="translate(-67.93 -21.64)"/><path d="M592.22,672.18h30.66c.39,3,2.35,10.63,12.12,10.63h1.22V672.18h41.56v82.64H592.22V672.18M591,671v85h88V671H635v10.63c-11,0-11-10.63-11-10.63Z" transform="translate(-67.93 -21.64)"/></g><g id="_6075" data-name="6075"><path class="cls-19" d="M782.51,756.42,681,755.23l1-83.82,37.24.44c.21,2.32,1.8,10.65,13.42,10.79h.72l.12-10.62,50.07.59Z" transform="translate(-67.93 -21.64)"/><path d="M681.92,672.59l35.88.43c.42,3,2.63,10.65,14.06,10.79h1.43l0-1.18.1-9.29v-.15l48.63.57-1,82.64L681,755.23l1-82.64m-1.42-1.19-1,85,103,1.21,1-85L732,672l-.13,10.63c-12.87-.15-12.74-10.78-12.74-10.78l-38.63-.45Z" transform="translate(-67.93 -21.64)"/></g><g id="_6074" data-name="6074"><path class="cls-19" d="M687,547.88h90.72V634H744.46c-.21-2.38-1.72-10.92-12.1-10.92h-.64V634H687Z" transform="translate(-67.93 -21.64)"/><path d="M777.72,632.79H745.67c-.41-3.08-2.46-10.92-12.67-10.92h-1.28v10.92H688.28V547.88h89.44v84.91M779,634V546.67H687V634h46V623.08c11.5,0,11.5,10.92,11.5,10.92Z" transform="translate(-67.93 -21.64)"/></g><g id="_6073" data-name="6073"><path class="cls-19" d="M782,547.88h86.78V634H837c-.21-2.38-1.65-10.92-11.58-10.92h-.61V634H782Z" transform="translate(-67.93 -21.64)"/><path d="M868.78,632.79H838.12c-.39-3.08-2.35-10.92-12.12-10.92h-1.22v10.92H783.22V547.88h85.56v84.91M870,634V546.67H782V634h44V623.08c11,0,11,10.92,11,10.92Z" transform="translate(-67.93 -21.64)"/></g><g id="_6072" data-name="6072"><path class="cls-19" d="M1216,764.63h-79.87v-97h29.28c.19,2.67,1.51,12.29,10.65,12.29h.57V667.67H1216Z" transform="translate(-67.93 -21.64)"/><path d="M1136.13,669h28.21c.36,3.46,2.17,12.29,11.16,12.29h1.13V669h38.25v95.6h-78.74V669m-1.13-1.36V766h81V667.67h-40.5V680c-10.12,0-10.12-12.29-10.12-12.29Z" transform="translate(-67.93 -21.64)"/></g><g id="_6071" data-name="6071"><path class="cls-19" d="M1305,763.63h-88.63v-97h32.49c.21,2.67,1.68,12.29,11.82,12.29h.63V666.67H1305Z" transform="translate(-67.93 -21.64)"/><path d="M1216.37,668h31.31c.4,3.46,2.4,12.29,12.38,12.29h1.25V668h42.44v95.6h-87.38V668m-1.25-1.36V765H1305V666.67h-44.94V679c-11.24,0-11.24-12.29-11.24-12.29Z" transform="translate(-67.93 -21.64)"/></g><g id="_6070" data-name="6070"><path class="cls-19" d="M1226.12,530.05h75.81v98h-27.79c-.18-2.7-1.44-12.42-10.12-12.42h-.53V628h-37.37Z" transform="translate(-67.93 -21.64)"/><path d="M1301.93,626.62h-26.78c-.34-3.49-2.06-12.42-10.59-12.42h-1.07v12.42h-36.3V530.05h74.74v96.57M1303,628V528.67h-76.88V628h38.44V615.58c9.61,0,9.61,12.42,9.61,12.42Z" transform="translate(-67.93 -21.64)"/></g><g id="_6069" data-name="6069"><path class="cls-19" d="M1135.12,530.05h88.63v98h-32.49c-.21-2.7-1.68-12.42-11.83-12.42h-.62V628h-43.69Z" transform="translate(-67.93 -21.64)"/><path d="M1223.75,626.62h-31.31c-.4-3.49-2.41-12.42-12.38-12.42h-1.25v12.42h-42.44V530.05h87.38v96.57M1225,628V528.67h-89.88V628h44.94V615.58c11.23,0,11.23,12.42,11.23,12.42Z" transform="translate(-67.93 -21.64)"/></g><g id="_6068" data-name="6068"><path class="cls-19" d="M1304,524.63h-77.79v-97h28.52c.19,2.67,1.47,12.29,10.38,12.29h.54V427.67H1304Z" transform="translate(-67.93 -21.64)"/><path d="M1226.21,429h27.48c.35,3.46,2.12,12.29,10.87,12.29h1.09V429h37.25v95.6h-76.69V429m-1.09-1.36V526H1304V427.67h-39.44V440c-9.86,0-9.86-12.29-9.86-12.29Z" transform="translate(-67.93 -21.64)"/></g><g id="_6067" data-name="6067"><path class="cls-19" d="M1217,523.63h-80.86v-97h29.64c.2,2.67,1.53,12.29,10.79,12.29h.57V426.67H1217Z" transform="translate(-67.93 -21.64)"/><path d="M1136.14,428h28.56c.37,3.46,2.2,12.29,11.3,12.29h1.14V428h38.72v95.6h-79.72V428m-1.14-1.36V525h82V426.67h-41V439c-10.25,0-10.25-12.29-10.25-12.29Z" transform="translate(-67.93 -21.64)"/></g><g id="_6066" data-name="6066"><path class="cls-19" d="M1136.12,262.05h88.63V360h-32.49c-.21-2.7-1.68-12.42-11.83-12.42h-.62V360h-43.69Z" transform="translate(-67.93 -21.64)"/><path d="M1224.75,358.62h-31.31c-.4-3.49-2.41-12.42-12.38-12.42h-1.25v12.42h-42.44V262.05h87.38v96.57M1226,360V260.67h-89.88V360h44.94V347.58c11.23,0,11.23,12.42,11.23,12.42Z" transform="translate(-67.93 -21.64)"/></g><g id="_6065" data-name="6065"><path class="cls-19" d="M1226.12,262.05h88.63V360h-32.49c-.21-2.7-1.68-12.42-11.83-12.42h-.62V360h-43.69Z" transform="translate(-67.93 -21.64)"/><path d="M1314.75,358.62h-31.31c-.4-3.49-2.41-12.42-12.38-12.42h-1.25v12.42h-42.44V262.05h87.38v96.57M1316,360V260.67h-89.88V360h44.94V347.58c11.23,0,11.23,12.42,11.23,12.42Z" transform="translate(-67.93 -21.64)"/></g><g id="_6064" data-name="6064"><path class="cls-19" d="M976.27,157.2V134.29c3.08-.15,14.16-1.18,14.16-8.34v-.44H976.27V94.71H1088V157.2Z" transform="translate(-67.93 -21.64)"/><path d="M1086.43,94.71v61.61H976.27V134.24c4-.28,14.16-1.69,14.16-8.73v-.88H976.27V94.71h110.16m1.57-.88H974.69v31.68h14.17c0,7.92-14.17,7.92-14.17,7.92V157.2H1088V93.83Z" transform="translate(-67.93 -21.64)"/></g><g id="_6063" data-name="6063"><path class="cls-19" d="M975.27,90.2V67.29c3.08-.15,14.16-1.18,14.16-8.34v-.44H975.27V27.71H1087V90.2Z" transform="translate(-67.93 -21.64)"/><path d="M1085.43,27.71V89.32H975.27V67.24c4-.28,14.16-1.69,14.16-8.73v-.88H975.27V27.71h110.16m1.57-.88H973.69V58.51h14.17c0,7.92-14.17,7.92-14.17,7.92V90.2H1087V26.83Z" transform="translate(-67.93 -21.64)"/></g><g id="_6062" data-name="6062"><path class="cls-19" d="M852.35,27.83V50.74c-2.64.14-12.13,1.18-12.13,8.33v.44h12.13V90.32H756.69V27.83Z" transform="translate(-67.93 -21.64)"/><path d="M758,90.32V28.71h94.31V50.78c-3.42.29-12.13,1.7-12.13,8.73v.88h12.13V90.32H758m-1.35.88h97V59.51H841.57c0-7.92,12.12-7.92,12.12-7.92V27.83h-97V91.2Z" transform="translate(-67.93 -21.64)"/></g><g id="_6061" data-name="6061"><path class="cls-19" d="M852.35,93.18v22.91c-2.64.15-12.13,1.18-12.13,8.34v.44h12.13v30.8H756.69V93.18Z" transform="translate(-67.93 -21.64)"/><path d="M758,155.67V94.06h94.31v22.08c-3.42.28-12.13,1.69-12.13,8.73v.88h12.13v29.92H758m-1.35.88h97V124.87H841.57c0-7.93,12.12-7.93,12.12-7.93V93.18h-97v63.37Z" transform="translate(-67.93 -21.64)"/></g><g id="_6060" data-name="6060"><path class="cls-19" d="M656.36,156V133.09c2.67-.15,12.25-1.18,12.25-8.34v-.44H656.36V93.51H753V156Z" transform="translate(-67.93 -21.64)"/><path d="M751.64,93.51v61.61H656.36V133c3.45-.28,12.25-1.69,12.25-8.73v-.88H656.36V93.51h95.28m1.36-.88H655v31.68h12.25c0,7.93-12.25,7.93-12.25,7.93V156h98V92.63Z" transform="translate(-67.93 -21.64)"/></g><g id="_6059" data-name="6059"><path class="cls-19" d="M656.06,91.2V68.29c2.67-.15,12.29-1.18,12.29-8.34v-.44H656.06V28.71H753V91.2Z" transform="translate(-67.93 -21.64)"/><path d="M751.63,28.71V90.32H656.06V68.24c3.46-.28,12.29-1.69,12.29-8.73v-.88H656.06V28.71h95.57m1.37-.88H654.69V59.51H667c0,7.92-12.29,7.92-12.29,7.92V91.2H753V27.83Z" transform="translate(-67.93 -21.64)"/></g><g id="_6058" data-name="6058"><path class="cls-19" d="M550.35,27.18V50.09c-2.64.15-12.13,1.18-12.13,8.34v.44h12.13v30.8H454.69V27.18Z" transform="translate(-67.93 -21.64)"/><path d="M456,89.67V28.06h94.31V50.14c-3.42.28-12.13,1.69-12.13,8.73v.88h12.13V89.67H456m-1.35.88h97V58.87H539.57c0-7.93,12.12-7.93,12.12-7.93V27.18h-97V90.55Z" transform="translate(-67.93 -21.64)"/></g><g id="_6057" data-name="6057"><path class="cls-19" d="M550.35,92.18v22.91c-2.64.15-12.13,1.18-12.13,8.34v.44h12.13v30.8H454.69V92.18Z" transform="translate(-67.93 -21.64)"/><path d="M456,154.67V93.06h94.31v22.08c-3.42.28-12.13,1.69-12.13,8.73v.88h12.13v29.92H456m-1.35.88h97V123.87H539.57c0-7.93,12.12-7.93,12.12-7.93V92.18h-97v63.37Z" transform="translate(-67.93 -21.64)"/></g><g id="_6056" data-name="6056"><path class="cls-19" d="M356.35,156V133.09c2.64-.15,12.12-1.18,12.12-8.34v-.44H356.35V93.51H452V156Z" transform="translate(-67.93 -21.64)"/><path d="M450.65,93.51v61.61h-94.3V133c3.41-.28,12.12-1.69,12.12-8.73v-.88H356.35V93.51h94.3m1.35-.88H355v31.68h12.12c0,7.93-12.12,7.93-12.12,7.93V156h97V92.63Z" transform="translate(-67.93 -21.64)"/></g><g id="_6055" data-name="6055"><path class="cls-19" d="M356.35,91V68.09c2.64-.15,12.12-1.18,12.12-8.34v-.44H356.35V28.51H452V91Z" transform="translate(-67.93 -21.64)"/><path d="M450.65,28.51V90.12h-94.3V68c3.41-.28,12.12-1.69,12.12-8.73v-.88H356.35V28.51h94.3m1.35-.88H355V59.31h12.12c0,7.93-12.12,7.93-12.12,7.93V91h97V27.63Z" transform="translate(-67.93 -21.64)"/></g><g id="_6054" data-name="6054"><path class="cls-19" d="M220.3,28.88l3.52,21.94c-2.72.16-12.44,1.2-11.34,8l.07.42,12.62-.07,4.72,29.5-99.53.56-9.59-59.83Z" transform="translate(-67.93 -21.64)"/><path d="M131.77,89.27l-9.46-59,98.13-.55,3.39,21.13c-3.51.3-12.36,1.7-11.28,8.43l.13.85h1.41l11-.06h.17l4.59,28.65-98.12.55m-1.27.85,100.93-.57-4.86-30.34L214,59.29c-1.21-7.59,11.4-7.66,11.4-7.66l-3.64-22.75-100.94.57,9.73,60.67Z" transform="translate(-67.93 -21.64)"/></g><g id="_6053" data-name="6053"><path class="cls-19" d="M230.3,90.88l3.52,21.94c-2.72.16-12.44,1.2-11.34,8.05l.07.42,12.62-.07,4.72,29.5-99.53.56-9.59-59.83Z" transform="translate(-67.93 -21.64)"/><path d="M141.77,151.27l-9.46-59,98.13-.55,3.39,21.13c-3.51.3-12.36,1.7-11.28,8.43l.13.85h1.41l11-.06h.17l4.59,28.65-98.12.55m-1.27.85,100.93-.57-4.86-30.34-12.62.08c-1.21-7.59,11.4-7.66,11.4-7.66l-3.64-22.75-100.94.57,9.73,60.67Z" transform="translate(-67.93 -21.64)"/></g><g id="_6052" data-name="6052"><path class="cls-19" d="M240.3,154.88l3.52,21.94c-2.72.16-12.44,1.2-11.34,8.05l.07.42,12.62-.07,4.72,29.5-99.53.56-9.59-59.83Z" transform="translate(-67.93 -21.64)"/><path d="M151.77,215.27l-9.46-59,98.13-.55,3.39,21.13c-3.51.3-12.36,1.7-11.28,8.43l.13.85h1.41l11-.06h.17l4.59,28.65-98.12.55m-1.27.85,100.93-.57-4.86-30.34-12.62.08c-1.21-7.59,11.4-7.66,11.4-7.66l-3.64-22.75-100.94.57,9.73,60.67Z" transform="translate(-67.93 -21.64)"/></g><g id="_6051" data-name="6051"><path class="cls-19" d="M251.3,219.88l3.52,21.94c-2.72.16-12.44,1.2-11.34,8.05l.07.42,12.62-.07,4.72,29.5-99.53.56-9.59-59.83Z" transform="translate(-67.93 -21.64)"/><path d="M162.77,280.27l-9.46-59,98.13-.55,3.39,21.13c-3.51.3-12.36,1.7-11.28,8.43l.13.85h1.41l11-.06h.17l4.59,28.65-98.12.55m-1.27.85,100.93-.57-4.86-30.34-12.62.08c-1.21-7.59,11.4-7.66,11.4-7.66l-3.64-22.75-100.94.57,9.73,60.67Z" transform="translate(-67.93 -21.64)"/></g><g id="_6050" data-name="6050"><path class="cls-19" d="M534.44,241.55h50.29v14.3c-1.38.09-6.37.74-6.37,5.2v.28h6.37v19.23H534.44Z" transform="translate(-67.93 -21.64)"/><path d="M584.73,280H535.15V241.55h49.58v13.78c-1.79.18-6.37,1.06-6.37,5.45v.55h6.37V280m.71.55V260.78h-6.37c0-4.95,6.37-4.95,6.37-4.95V241h-51v39.56Z" transform="translate(-67.93 -21.64)"/></g><g id="_6049" data-name="6049"><path class="cls-19" d="M534.44,199.55h50.29v14.3c-1.38.09-6.37.74-6.37,5.2v.28h6.37v19.23H534.44Z" transform="translate(-67.93 -21.64)"/><path d="M584.73,238H535.15V199.55h49.58v13.78c-1.79.18-6.37,1.06-6.37,5.45v.55h6.37V238m.71.55V218.78h-6.37c0-4.95,6.37-4.95,6.37-4.95V199h-51v39.56Z" transform="translate(-67.93 -21.64)"/></g><path id="_612" data-name="612" class="cls-20" d="M522.77,283.83V264.74H408.21v52.07H584.48V299.52H561.82V298.4c0-6,17.73-6.92,22.66-7v-7.53Z" transform="translate(-67.93 -21.64)"/><g id="_6032" data-name="6032"><path class="cls-19" d="M590.91,843v-6.38h-.62c-10.18,0-11.65,5-11.87,6.38h-.84c-.21-1.39-1.69-6.38-11.86-6.38h-.63V843H501.25V792.71h19.91v6.37h.62c10.18,0,11.65-5,11.87-6.37h54.66c.21,1.39,1.69,6.37,11.86,6.37h.63v-6.37H624V843Z" transform="translate(-67.93 -21.64)"/><path d="M622.75,792.71v49.58H590.91v-6.37h-1.25c-10,0-12,4.58-12.42,6.37h.28c-.41-1.79-2.42-6.37-12.43-6.37h-1.25v6.37H501.25V792.71h18.66v6.37h1.25c10,0,12-4.58,12.42-6.37h53.54c.41,1.79,2.42,6.37,12.43,6.37h1.25v-6.37h22M624,792H599.55v6.38c-11.28,0-11.28-6.38-11.28-6.38H532.43s0,6.38-11.27,6.38V792H500v51h65.09v-6.38c11.27,0,11.27,6.38,11.27,6.38h2s0-6.38,11.27-6.38V843H624V792Z" transform="translate(-67.93 -21.64)"/></g><g id="_6029" data-name="6029"><rect class="cls-19" x="318.41" y="628.72" width="58.67" height="44.64"/><path d="M443.67,650.36v42.92H386.33V650.36h57.34m1.33-1.71H385V695h60V648.65Z" transform="translate(-67.93 -21.64)"/></g><g id="_6028" data-name="6028"><polygon class="cls-19" points="217.93 634.92 310.07 634.92 310.07 734 205.06 733.82 217.93 634.92"/><path d="M310,751.55c0-.12,0-.24,0-.34l-36.39-.06,12.31-94.59h23.9a5.38,5.38,0,0,1-.43-1.89,4.57,4.57,0,0,1,.18-1.43h-25.3l-13.6,102.22,38.81.07A5.51,5.51,0,0,1,310,751.55Z" transform="translate(-67.93 -21.64)"/><path d="M365.16,653.24a5.65,5.65,0,0,1-.14,3.33H375.9l-.28,94.75-31.41-.05a5.6,5.6,0,0,1-.06,4.31l33.85.06V653.24Z" transform="translate(-67.93 -21.64)"/></g><g id="_6027" data-name="6027"><path class="cls-19" d="M382.94,559l-.15,94.41L295.48,655l8.3-70.77c2.24-.23,10.34-1.76,11.37-11.87l.07-.61-10,0,1.5-12.78Z" transform="translate(-67.93 -21.64)"/><path d="M382.87,602l-.08,51.41-17.21.31a6,6,0,0,1,.44,1.52l18-.33v-53A5.32,5.32,0,0,1,382.87,602Z" transform="translate(-67.93 -21.64)"/><path d="M306.74,559l-1.64,14,10,0c-1.15,11.24-11.31,11.29-11.31,11.29l-8.48,72.29,17.81-.33a5,5,0,0,1,.24-1.37c0-.06,0-.12,0-.18l-16.6.31,8-69.55c2.92-.43,10.43-2.5,11.43-12.46l.12-1.23h-1.1l-8.73,0h-.14l1.34-11.6h74.46a5.48,5.48,0,0,1,1.85,0V559Z" transform="translate(-67.93 -21.64)"/><line class="cls-21" x1="316.07" y1="537.86" x2="432.07" y2="537.86"/></g><g id="_6024" data-name="6024"><polygon class="cls-19" points="59.2 729.22 203.38 741.99 195.65 796.36 49.93 794.26 59.2 729.22"/><path d="M265.12,814.12l5.09-35.88a5.58,5.58,0,0,1-.57.08,4.26,4.26,0,0,1-2.15-.49l-5.12,36C263.29,814,264.2,814,265.12,814.12Z" transform="translate(-67.93 -21.64)"/><path d="M186.58,814.58l-68.37-1.18,8.92-62.54,83,7.36a4.64,4.64,0,0,1,1.78-2.14L123.55,748l-9.67,67.85,72.66,1C186.55,816.12,186.57,815.35,186.58,814.58Z" transform="translate(-67.93 -21.64)"/></g><g id="_6023" data-name="6023"><polygon class="cls-19" points="75.62 596.8 216.44 608.34 199.51 742.8 58.16 731.86 75.62 596.8"/><path d="M126.76,748.29l16.79-129.85,65.79,5.39c0-.63.07-1.26.1-1.89.06-1.1.15-2.2.25-3.3L141,613,122.86,753.26l88.84,6.87a5.39,5.39,0,0,1,.9-5.18Z" transform="translate(-67.93 -21.64)"/><path d="M278.21,653.27,265.59,753.46h3.23L281.35,654A5.68,5.68,0,0,1,278.21,653.27Z" transform="translate(-67.93 -21.64)"/></g><g id="_6021" data-name="6021"><path class="cls-19" d="M507,346.35l100.44-.14-17,71-57.67,4.69c-.08-1.71-1.08-7.92-11.35-7.17l-.64,0-.32,8.13L507,424Z" transform="translate(-67.93 -21.64)"/><path d="M590.65,416.39,534,420.94c-.22-2.21-1.78-7.9-11.9-7.18l-1.28.1,0,.92-.28,7.13V422l-12.21,1,.29-76.66,98.86-.13-16.79,70.18m.87.74L599,386.22,609,345H507v79l14.72-1.2.34-8.11c11.35-.83,10.75,7.21,10.75,7.21l58.71-4.77Z" transform="translate(-67.93 -21.64)"/></g><g id="_6020" data-name="6020"><polygon class="cls-19" points="85.11 521.65 235.06 538.21 226.13 611.36 75.61 597.2 85.11 521.65"/><path d="M296.86,631.32l5.88-48.43a5.43,5.43,0,0,1-.69.09,4.78,4.78,0,0,1-2.59-.74l-5.89,48.46C294.66,630.92,295.76,631.12,296.86,631.32Z" transform="translate(-67.93 -21.64)"/><path d="M209.08,622.11l-65.18-6.17L153,543.29l80.9,8.94a5.57,5.57,0,0,1,1.9-2.68l-86-9.55L140,618.52,209,625C209,624,209.05,623.07,209.08,622.11Z" transform="translate(-67.93 -21.64)"/></g><g id="_6019" data-name="6019"><polygon class="cls-19" points="93.58 450.53 244.56 451.16 230.87 543.09 83.67 521.87 93.58 450.53"/><path d="M303.8,571,318,471.53a5.51,5.51,0,0,1-.95.24,4.34,4.34,0,0,1-3.37-1.27l-14.11,98.83C301,569.9,302.38,570.46,303.8,571Z" transform="translate(-67.93 -21.64)"/><path d="M161.5,472.18l54.66.22c0-1,0-2,.08-3l-57,.06L149,543.14l56.52,8.15c.05-1,.1-2,.16-3.06L152,540.79Z" transform="translate(-67.93 -21.64)"/></g><g id="_6018" data-name="6018"><polygon class="cls-19" points="164.13 366.92 373.07 366.55 373.07 436.95 149.13 448.41 164.13 366.92"/><path d="M228.67,388.62c0-1,0-2,0-3h-6.17l-10.25,80.56a42.66,42.66,0,0,0,5.54,0l9.9-77.59Z" transform="translate(-67.93 -21.64)"/><path d="M403.37,385.65c0,.89,0,1.78,0,2.66l33.38-.06-.09,35.87H441V385.65Z" transform="translate(-67.93 -21.64)"/></g><g id="_6017" data-name="6017"><polygon class="cls-19" points="171.47 262.03 339.07 262.03 339.07 364.2 160.36 364.2 171.47 262.03"/><path d="M403,383.82h-2.34c-.09,1.4-.21,2.79-.35,4.18H407V357h-4Z" transform="translate(-67.93 -21.64)"/><path d="M262.77,283.68c-.43-1.22-.85-2.45-1.24-3.68H236L224.22,385.85h3.85a6.25,6.25,0,0,1,.25-1.37,7,7,0,0,1,.24-1.44,5.55,5.55,0,0,1,.21-1.15v-.22h0l10.66-98Z" transform="translate(-67.93 -21.64)"/><path d="M323.06,280c.46,1.24,1,2.46,1.54,3.68h78.59l-.07,29.63c1.29.08,2.59.2,3.88.34V280Z" transform="translate(-67.93 -21.64)"/></g><rect id="_6016" data-name="6016" class="cls-22" x="880.52" y="74.52" width="78.96" height="22" transform="translate(751.13 982.31) rotate(-89.04)"/><rect id="_6015" data-name="6015" class="cls-23" x="563.51" y="76.54" width="78.96" height="18.02" transform="translate(439.4 665.38) rotate(-89.04)"/><rect id="_6014" data-name="6014" class="cls-24" x="259.02" y="76.05" width="78.96" height="18.99" transform="translate(140.04 360.93) rotate(-89.04)"/><g id="_504" data-name="504"><path class="cls-19" d="M505.11,384V423H482c-.16-1.07-1.2-4.94-8.42-4.94h-.45V423H442V384Z" transform="translate(-67.93 -21.64)"/><path d="M442.89,423v-38.4h62.22V423H482.82c-.29-1.39-1.72-4.94-8.82-4.94h-.89V423H442.89m-.89.55h32v-4.94c8,0,8,4.94,8,4.94h24V384H442v39.5Z" transform="translate(-67.93 -21.64)"/></g><g id="_283" data-name="283"><rect class="cls-19" x="1165.31" y="892.68" width="192.62" height="48.67"/><path d="M1236.89,963h182.89a6.14,6.14,0,0,1-.27-1.72.76.76,0,0,1,0-.15H1236.83C1236.84,961.75,1236.87,962.38,1236.89,963Z" transform="translate(-67.93 -21.64)"/><path d="M1236.7,912.46l0,1.87h184.66c0-.63,0-1.25,0-1.87Z" transform="translate(-67.93 -21.64)"/></g></g><g id="Corridors"><rect id="_6128" data-name="6128" class="cls-25" x="469.07" y="397.36" width="99" height="24"/><polygon id="_6127" data-name="6127" class="cls-25" points="523.6 395.49 591.91 397.36 591.91 324.19 540.91 324.19 523.6 395.49"/><rect id="_6123" data-name="6123" class="cls-25" x="966" y="964" width="43" height="59" transform="translate(-73.93 1959.36) rotate(-90)"/><rect id="_6120" data-name="6120" class="cls-25" x="684.25" y="338.75" width="73.5" height="66" transform="translate(281.32 1071.11) rotate(-90)"/><rect id="_6118" data-name="6118" class="cls-25" x="316.07" y="537.36" width="115" height="26"/><polygon id="_6117" data-name="6117" class="cls-25" points="255.07 261.19 195.39 261.36 192.07 227.34 247.95 227.43 255.07 261.19"/><rect id="_6116" data-name="6116" class="cls-25" x="464.5" y="140.5" width="14" height="121" transform="translate(202.57 650.86) rotate(-90)"/><rect id="_6115" data-name="6115" class="cls-25" x="859" y="107" width="32" height="140" transform="translate(630.07 1030.36) rotate(-90)"/><rect id="_6048" data-name="6048" class="cls-25" x="520.07" y="139.36" width="41" height="156"/><rect id="_6047" data-name="6047" class="cls-25" x="1019.07" y="139.36" width="49" height="186"/><rect id="_6046" data-name="6046" class="cls-25" x="1208.5" y="562.5" width="30" height="171" transform="translate(507.57 1849.86) rotate(-90)"/><rect id="_6045" data-name="6045" class="cls-25" x="1045.07" y="860.36" width="119" height="81"/><rect id="_6044" data-name="6044" class="cls-25" x="1067" y="923" width="43" height="143" transform="translate(26.07 2061.36) rotate(-90)"/><rect id="_6043" data-name="6043" class="cls-25" x="331" y="930" width="36" height="206" transform="translate(-751.93 1360.36) rotate(-90)"/><rect id="_6042" data-name="6042" class="cls-25" x="124.07" y="795.36" width="54" height="234"/><rect id="_6041" data-name="6041" class="cls-25" x="1196.5" y="308.5" width="64" height="171" transform="translate(766.57 1600.86) rotate(-90)"/><rect id="_6040" data-name="6040" class="cls-25" x="1025" y="301" width="64" height="158" transform="translate(609.07 1415.36) rotate(-90)"/><rect id="_6039" data-name="6039" class="cls-25" x="1016.07" y="451.36" width="49" height="176"/><rect id="_6038" data-name="6038" class="cls-25" x="1019.07" y="630.36" width="47" height="126"/><rect id="_287" data-name="287" class="cls-25" x="1019.07" y="755.36" width="103" height="103"/><rect id="_285" data-name="285" class="cls-25" x="815.75" y="274.25" width="73.5" height="197" transform="translate(411.82 1203.61) rotate(-90)"/><rect id="_6037" data-name="6037" class="cls-25" x="990.5" y="596.5" width="64" height="117" transform="translate(299.57 1655.86) rotate(-90)"/><rect id="_6036" data-name="6036" class="cls-25" x="833.5" y="549.5" width="32.5" height="207.5" transform="translate(128.57 1481.36) rotate(-90)"/><rect id="_6035" data-name="6035" class="cls-25" x="585" y="550" width="32.5" height="202.5" transform="translate(-117.93 1230.86) rotate(-90)"/><rect id="_6034" data-name="6034" class="cls-25" x="836" y="762" width="32.5" height="202.5" transform="translate(-78.93 1693.86) rotate(-90)"/><rect id="_6033" data-name="6033" class="cls-25" x="586" y="762" width="32.5" height="202.5" transform="translate(-328.93 1443.86) rotate(-90)"/><rect id="_6031" data-name="6031" class="cls-25" x="384.07" y="859.36" width="45" height="134"/><rect id="_6030" data-name="6030" class="cls-25" x="380.07" y="647.36" width="49" height="176"/><rect id="_6026" data-name="6026" class="cls-25" x="382.07" y="568.36" width="67" height="45"/><g id="_6025" data-name="6025"><polygon class="cls-25" points="202.55 734.36 379.19 735.06 379.19 770.36 200.07 769.73 202.55 734.36"/></g><rect id="_6022" data-name="6022" class="cls-25" x="384.07" y="431.36" width="43" height="100"/><polygon id="_6013" data-name="6013" class="cls-25" points="248.07 226.94 191.96 227.36 177.07 135.34 227.05 135.32 248.07 226.94"/><rect id="_6012" data-name="6012" class="cls-25" x="454.75" y="61.25" width="32.5" height="232" transform="translate(225.82 626.61) rotate(-90)"/><rect id="_6011" data-name="6011" class="cls-25" x="701.25" y="89.75" width="32.5" height="175" transform="translate(472.32 873.11) rotate(-90)"/><rect id="_6010" data-name="6010" class="cls-25" x="998" y="108" width="32.5" height="138.5" transform="translate(769.07 1169.86) rotate(-90)"/></g></svg>