<svg xmlns="http://www.w3.org/2000/svg" viewBox="0 0 1356.93 1098.31"><defs><style>.cls-1{fill:#f2f2f2;stroke-width:1.91px;}.cls-1,.cls-10,.cls-11,.cls-12,.cls-13,.cls-14,.cls-15,.cls-16,.cls-17,.cls-2,.cls-20,.cls-21,.cls-22,.cls-23,.cls-3,.cls-4,.cls-5,.cls-6,.cls-7,.cls-8,.cls-9{stroke:#000;}.cls-10,.cls-11,.cls-12,.cls-13,.cls-14,.cls-15,.cls-16,.cls-17,.cls-2,.cls-21,.cls-22,.cls-23,.cls-6{fill:#b3b3b3;}.cls-2,.cls-3,.cls-4,.cls-5{stroke-width:0.48px;}.cls-3,.cls-7{fill:#c69c6d;}.cls-4,.cls-8{fill:none;}.cls-6,.cls-7,.cls-8,.cls-9{stroke-width:0.46px;}.cls-10{stroke-width:1.49px;}.cls-11{stroke-width:1.51px;}.cls-12{stroke-width:1.85px;}.cls-13{stroke-width:1.86px;}.cls-14{stroke-width:1.49px;}.cls-15{stroke-width:1.71px;}.cls-16{stroke-width:1.72px;}.cls-17{stroke-width:1.72px;}.cls-18{opacity:0.44;}.cls-19,.cls-20{fill:#e6e6e6;}.cls-20{stroke-miterlimit:10;}.cls-22{stroke-width:0.91px;}.cls-23{stroke-width:0.93px;}</style></defs><g id="Layer_2" data-name="Layer 2"><g id="Layer_1-2" data-name="Layer 1"><g id="Layer_2-2" data-name="Layer 2"><polygon id="Circulation" class="cls-1" points="46.13 0.96 1026.33 1.28 1025.75 54.3 1248.07 53.36 1248.07 1096.89 685.82 1096.89 685.81 1097.36 563.56 1097.36 563.57 1096.89 1.09 1096.89 85.25 443.01 146.86 445.01 171.03 262.02 89.41 261.87 46.13 0.96"/><g id="Stairs"><g id="Stair1"><rect id="Elevator" class="cls-2" x="1071.52" y="58.13" width="53.3" height="68.22"/><polygon id="Reception" class="cls-3" points="1243.26 112.71 1243.26 108.16 1250.66 108.16 1250.66 79.36 1243.26 79.36 1243.26 71.78 1258.07 71.78 1258.07 112.71 1243.26 112.71"/><g id="Stairs-2" data-name="Stairs"><polygon id="Stairs-3" data-name="Stairs" class="cls-2" points="1204.77 58.13 1204.77 85.42 1151.47 85.42 1151.47 99.07 1204.77 99.07 1204.77 126.36 1124.82 126.36 1124.82 58.13 1204.77 58.13"/><line class="cls-4" x1="1191.44" y1="86.18" x2="1191.44" y2="58.89"/><line class="cls-4" x1="1178.12" y1="86.18" x2="1178.12" y2="58.89"/><line class="cls-4" x1="1164.79" y1="86.18" x2="1164.79" y2="58.89"/><line class="cls-4" x1="1151.47" y1="86.18" x2="1151.47" y2="58.89"/><polyline class="cls-5" points="1138.88 112.71 1191.44 112.71 1178.12 119.53 1178.12 105.89 1191.44 112.71"/></g></g><g id="Stair2"><rect id="Elevator-2" data-name="Elevator" class="cls-6" x="517.52" y="1004.36" width="53.3" height="62"/><polygon id="Reception-2" data-name="Reception" class="cls-7" points="689.26 1053.96 689.26 1049.82 696.66 1049.82 696.66 1023.64 689.26 1023.64 689.26 1016.76 704.07 1016.76 704.07 1053.96 689.26 1053.96"/><g id="Stairs-4" data-name="Stairs"><polygon id="Stairs-5" data-name="Stairs" class="cls-6" points="650.77 1004.36 650.77 1029.16 597.47 1029.16 597.47 1041.56 650.77 1041.56 650.77 1066.36 570.82 1066.36 570.82 1004.36 650.77 1004.36"/><line class="cls-8" x1="637.44" y1="1029.85" x2="637.44" y2="1005.05"/><line class="cls-8" x1="624.12" y1="1029.85" x2="624.12" y2="1005.05"/><line class="cls-8" x1="610.79" y1="1029.85" x2="610.79" y2="1005.05"/><line class="cls-8" x1="597.47" y1="1029.85" x2="597.47" y2="1005.05"/><polyline class="cls-9" points="584.88 1053.96 637.44 1053.96 624.12 1060.16 624.12 1047.76 637.44 1053.96"/></g></g></g><g id="Elevators"><rect id="Elevator-3" data-name="Elevator" class="cls-10" x="707.83" y="258.23" width="74.85" height="51.37"/><rect id="Elevator-4" data-name="Elevator" class="cls-11" x="786.83" y="257.85" width="75.84" height="52.37"/><rect id="Elevator-5" data-name="Elevator" class="cls-12" x="1126.87" y="746.77" width="113.9" height="52.37"/><rect id="Elevator-6" data-name="Elevator" class="cls-13" x="1126.87" y="803.74" width="114.8" height="52.37"/><rect id="Elevator-7" data-name="Elevator" class="cls-14" x="626.17" y="259.13" width="75.53" height="51.27"/><rect id="Elevator-8" data-name="Elevator" class="cls-15" x="629.75" y="391.01" width="75.66" height="66.99"/><rect id="Elevator-9" data-name="Elevator" class="cls-16" x="709.76" y="391.59" width="76.54" height="67.35"/><rect id="Elevator-10" data-name="Elevator" class="cls-17" x="789.68" y="392.18" width="79.02" height="64.99"/></g><g id="Rooms" class="cls-18"><g id="_658B" data-name="658B"><rect class="cls-19" x="433.06" y="737.28" width="61.01" height="33.08"/><path d="M431.68,736v34.36H453.5s0-.07,0-.1a5.24,5.24,0,0,1-.23-1.18H433.06v-31.8h59.62v31.8H464.56a6.11,6.11,0,0,1-.13,1.28h29.64V736Z"/></g><g id="_676" data-name="676"><rect class="cls-19" x="318.4" y="580.72" width="58.67" height="44.64"/><path d="M375.73,580.72v42.92H318.4V580.72h57.33m1.34-1.72h-60v46.36h60V579Z"/></g><g id="_602-17" data-name="602-17"><polygon class="cls-19" points="171.47 262.03 339.07 262.03 339.07 364.2 160.35 364.2 171.47 262.03"/><path d="M335,362.18h-2.35c-.08,1.39-.2,2.78-.35,4.18h6.75v-31h-4Z"/><path d="M194.84,262c-.43-1.22-.85-2.44-1.24-3.67H168.07L156.29,364.2h3.85a6.45,6.45,0,0,1,.24-1.37,6.3,6.3,0,0,1,.25-1.43,5.65,5.65,0,0,1,.21-1.16V360h0l10.66-98Z"/><path d="M255.13,258.36c.45,1.23,1,2.46,1.54,3.67h78.59l-.08,29.64c1.3.08,2.6.2,3.89.34V258.36Z"/></g><g id="_602-18" data-name="602-18"><polygon class="cls-19" points="164.13 366.92 373.07 366.55 373.07 436.95 149.13 448.41 164.13 366.92"/><path d="M160.74,367c0-1-.05-2,0-3h-6.16l-10.26,80.56a44.66,44.66,0,0,0,5.55,0l9.89-77.6Z"/><path d="M335.43,364c0,.89,0,1.78,0,2.67l33.38-.06-.1,35.87h4.34V364Z"/></g><g id="_675" data-name="675"><polygon class="cls-19" points="217.92 634.92 310.07 634.92 310.07 734 205.06 733.82 217.92 634.92"/><path d="M242.05,729.91c0-.12,0-.24-.05-.34l-36.38-.06,12.3-94.59h23.91a5.49,5.49,0,0,1-.43-1.89,4.23,4.23,0,0,1,.18-1.43H216.27L202.68,733.82l38.81.06A5.49,5.49,0,0,1,242.05,729.91Z"/><path d="M297.23,631.6a5.78,5.78,0,0,1-.14,3.32H308l-.28,94.75-31.41,0a5.63,5.63,0,0,1-.06,4.32l33.85.06V631.6Z"/></g><g id="_602A" data-name="602A"><polygon class="cls-19" points="71.69 599.1 215.06 607.59 200.86 748.79 56.31 734.55 71.69 599.1"/><path d="M142.54,737.58l-85.64-8.3L71.68,599.1,137.07,603c0-.63,0-1.27.07-1.91,0-1.12.1-2.23.19-3.35l-68.19-3.93-16,140.46,86.72,8.54C140.69,741,141.6,739.29,142.54,737.58Z"/><path d="M212,630.06,197.78,733.13l3.44.18,14.14-102.48A6.27,6.27,0,0,1,212,630.06Z"/></g><g id="_602B" data-name="602B"><polygon class="cls-19" points="54.98 729.27 202.37 742.03 194.64 796.36 48.91 794.26 54.98 729.27"/><path d="M196.18,792.55l5.09-35.73c-.2,0-.39.07-.59.08a4.33,4.33,0,0,1-2.19-.5l-5.07,35.88Z"/><path d="M117.8,794.94l-68.21-1.19,7.32-62.53,83.29,7.23a4.43,4.43,0,0,1,1.74-2.14l-87.7-7.95-8.91,67.83,72.48,1.06C117.8,796.48,117.8,795.71,117.8,794.94Z"/></g><g id="Y6-020"><polygon class="cls-19" points="80.17 530.74 234.6 540.06 225.97 610.36 72.34 596.84 80.17 530.74"/><path d="M229.08,608.77l5.69-46.57a6.65,6.65,0,0,1-.78.1,6.11,6.11,0,0,1-2.93-.65l-5.68,46.5C226.61,608.37,227.84,608.57,229.08,608.77Z"/><path d="M135.65,599.78l-63-5.48,7.52-63.56,79.68,4.8a5.46,5.46,0,0,1,1.92-2.53l-84.59-5-8.11,68.56,66.56,5.86C135.63,601.53,135.64,600.66,135.65,599.78Z"/></g><g id="Y6-019"><polygon class="cls-19" points="89.83 448.7 245.6 450.37 231.79 545.36 79.97 531.03 89.83 448.7"/><path d="M236.32,551.4,250.7,449.07a4.53,4.53,0,0,1-.87.25,3.72,3.72,0,0,1-3.09-1.35L232.46,550C233.74,550.46,235,550.94,236.32,551.4Z"/><path d="M90.12,449.13l60,2.61c0-1.11,0-2.22.06-3.31L87.4,445.82,77,530.74l62.8,5.91c0-1.09.09-2.17.14-3.26l-59.49-5.48Z"/></g><g id="_674" data-name="674"><rect class="cls-19" x="318.4" y="628.72" width="58.67" height="44.64"/><path d="M375.73,628.72v42.92H318.4V628.72h57.33m1.34-1.72h-60v46.36h60V627Z"/></g><g id="_658A" data-name="658A"><rect class="cls-19" x="495.06" y="737.28" width="61.01" height="33.08"/><path d="M493.68,736v34.36h27a5.48,5.48,0,0,1,0-1.28H495.06v-31.8h59.62v31.8H531.42a6.09,6.09,0,0,1,0,1.28h24.64V736Z"/></g><g id="_648" data-name="648"><path class="cls-19" d="M959.07,860.58h31.09c.2,2.4,1.6,11,11.31,11h.6v-11h41.8v86.95h-84.8Z"/><path d="M1043.87,946.31H960.26V860.58h30c.38,3.1,2.3,11,11.85,11h1.19v-11h40.61v85.73m1.2,1.22V859.36h-43v11c-10.75,0-10.75-11-10.75-11H959.07v88.17Z"/></g><g id="_650" data-name="650"><path class="cls-19" d="M872.07,860.58h31.09c.2,2.4,1.6,11,11.31,11h.6v-11h41.8v86.95h-84.8Z"/><path d="M956.87,946.31H873.26V860.58h30c.38,3.1,2.3,11,11.85,11h1.19v-11h40.61v85.73m1.2,1.22V859.36h-43v11c-10.75,0-10.75-11-10.75-11H872.07v88.17Z"/></g><g id="_630A" data-name="630A"><path class="cls-19" d="M945.07,595.67H926.94c-.12-1.34-.93-6.17-6.59-6.17H920v6.17H895.63V547h49.44Z"/><path d="M895.63,547.71h48.74v48H926.91c-.23-1.73-1.35-6.17-6.91-6.17h-.7v6.17H895.63v-48m-.7-.69v49.34H920v-6.17c6.27,0,6.27,6.17,6.27,6.17h18.8V547Z"/></g><g id="_662" data-name="662"><path class="cls-19" d="M372.07,985.6H352.5c-.13-1.48-1-6.79-7.13-6.79H345v6.79H318.68V932h53.39Z"/><path d="M318.68,932.78h52.64V985.6H352.46c-.25-1.91-1.45-6.79-7.46-6.79h-.75v6.79H318.68V932.78m-.75-.76v54.34H345v-6.8c6.77,0,6.77,6.8,6.77,6.8h20.3V932Z"/></g><g id="_664" data-name="664"><path class="cls-19" d="M313.07,987.57h-20.3c-.13-1.53-1-7-7.38-7H285v7H257.71V932h55.36Z"/><path d="M257.71,932.81h54.58v54.76H292.73c-.25-2-1.5-7-7.73-7h-.78v7H257.71V932.81m-.78-.79v56.34H285v-7.05c7,0,7,7.05,7,7.05h21.05V932Z"/></g><g id="_668B" data-name="668B"><path class="cls-19" d="M184,937.26V922.83c1.9-.09,8.75-.74,8.75-5.25v-.27H184v-19.4h69v39.35Z"/><path d="M252.09,897.91V936.7H184V922.8c2.46-.17,8.75-1.06,8.75-5.49v-.56H184V897.91h68.05m1-.55h-70v19.95h8.75c0,5-8.75,5-8.75,5v15h70v-39.9Z"/></g><g id="_668A" data-name="668A"><path class="cls-19" d="M184,987.26V972.83c1.9-.09,8.75-.74,8.75-5.25v-.27H184v-19.4h69v39.35Z"/><path d="M252.09,947.91V986.7H184V972.8c2.46-.17,8.75-1.06,8.75-5.49v-.56H184V947.91h68.05m1-.55h-70v19.95h8.75c0,5-8.75,5-8.75,5v15h70v-39.9Z"/></g><g id="_630B" data-name="630B"><path class="cls-19" d="M999.07,594.67H980.94c-.12-1.34-.93-6.17-6.59-6.17H974v6.17H949.63V546h49.44Z"/><path d="M949.63,546.71h48.74v48H980.91c-.23-1.73-1.35-6.17-6.91-6.17h-.7v6.17H949.63v-48m-.7-.69v49.34H974v-6.17c6.27,0,6.27,6.17,6.27,6.17h18.8V546Z"/></g><g id="_622" data-name="622"><path class="cls-19" d="M1068.18,240.4h88.64v98h-32.49c-.22-2.71-1.68-12.42-11.83-12.42h-.62v12.42h-43.7Z"/><path d="M1156.82,337h-31.31c-.4-3.5-2.41-12.42-12.38-12.42h-1.25V337h-42.45V240.4h87.39V337m1.25,1.38V239h-89.89v99.34h45V325.94c11.23,0,11.23,12.42,11.23,12.42Z"/></g><g id="_631" data-name="631"><path class="cls-19" d="M1067.18,508.4h88.64v98h-32.49c-.22-2.71-1.68-12.42-11.83-12.42h-.62v12.42h-43.7Z"/><path d="M1155.82,605h-31.31c-.4-3.5-2.41-12.42-12.38-12.42h-1.25V605h-42.45V508.4h87.39V605m1.25,1.38V507h-89.89v99.34h45V593.94c11.23,0,11.23,12.42,11.23,12.42Z"/></g><g id="_647" data-name="647"><path class="cls-19" d="M896.07,725.4H978.9v98H948.53c-.19-2.71-1.57-12.42-11-12.42h-.58v12.42H896.07Z"/><path d="M978.9,822H949.64c-.38-3.5-2.25-12.42-11.57-12.42H936.9V822H897.23V725.4H978.9V822m1.17,1.38V724h-84v99.34h42V810.94c10.5,0,10.5,12.42,10.5,12.42Z"/></g><g id="_637" data-name="637"><path class="cls-19" d="M981.91,822.36V725.72h36.16v35.42c-1,.24-4.59,1.84-4.59,12.9v.68h4.59v47.64Z"/><path d="M1017.56,725.72v34.14c-1.29.43-4.59,2.62-4.59,13.5v1.36h4.59V821H981.91V725.72h35.65m.51-1.36H981.4v98h36.67v-49h-4.59c0-12.25,4.59-12.25,4.59-12.25V724.36Z"/></g><g id="_649" data-name="649"><path class="cls-19" d="M806.07,737.24H888.9v86.12H858.53c-.19-2.38-1.57-10.92-11-10.92h-.58v10.92H806.07Z"/><path d="M888.9,822.14H859.64c-.38-3.07-2.25-10.91-11.57-10.91H846.9v10.91H807.23v-84.9H888.9v84.9m1.17,1.22V736h-84v87.34h42V812.44c10.5,0,10.5,10.92,10.5,10.92Z"/></g><g id="_629" data-name="629"><path class="cls-19" d="M806.07,526.24H888.9v86.12H858.53c-.19-2.38-1.57-10.92-11-10.92h-.58v10.92H806.07Z"/><path d="M888.9,611.14H859.64c-.38-3.07-2.25-10.91-11.57-10.91H846.9v10.91H807.23v-84.9H888.9v84.9m1.17,1.22V525h-84v87.34h42V601.44c10.5,0,10.5,10.92,10.5,10.92Z"/></g><g id="_685" data-name="685"><path class="cls-19" d="M714.07,526.24h86.77v86.12H769c-.2-2.38-1.64-10.92-11.57-10.92h-.62v10.92H714.07Z"/><path d="M800.84,611.14H770.19c-.39-3.07-2.36-10.91-12.12-10.91h-1.23v10.91H715.29v-84.9h85.55v84.9m1.23,1.22V525h-88v87.34h44V601.44c11,0,11,10.92,11,10.92Z"/></g><g id="_683" data-name="683"><path class="cls-19" d="M619.07,526.24h90.72v86.12H676.53c-.22-2.38-1.72-10.92-12.1-10.92h-.64v10.92H619.07Z"/><path d="M709.79,611.14h-32c-.41-3.07-2.46-10.91-12.67-10.91h-1.28v10.91H620.34v-84.9h89.45v84.9m1.28,1.22V525h-92v87.34h46V601.44c11.5,0,11.5,10.92,11.5,10.92Z"/></g><g id="_679" data-name="679"><path class="cls-19" d="M451.07,559.76h80.86v52.6H502.29c-.2-1.45-1.54-6.67-10.79-6.67h-.57v6.67H451.07Z"/><path d="M531.93,611.62H503.36c-.36-1.88-2.19-6.67-11.29-6.67h-1.14v6.67H452.21V559.76h79.72v51.86m1.14.74V559h-82v53.34h41v-6.67c10.25,0,10.25,6.67,10.25,6.67Z"/></g><g id="_681" data-name="681"><path class="cls-19" d="M537.07,559.76H613v52.6H585.16c-.18-1.45-1.44-6.67-10.13-6.67h-.53v6.67H537.07Z"/><path d="M613,611.62H586.18c-.35-1.88-2.07-6.67-10.61-6.67H574.5v6.67H538.14V559.76H613v51.86m1.07.74V559h-77v53.34h38.5v-6.67c9.62,0,9.62,6.67,9.62,6.67Z"/></g><g id="_651" data-name="651"><path class="cls-19" d="M718.07,737.24H800.9v86.12H770.53c-.19-2.38-1.57-10.92-11-10.92h-.58v10.92H718.07Z"/><path d="M800.9,822.14H771.64c-.38-3.07-2.25-10.91-11.57-10.91H758.9v10.91H719.23v-84.9H800.9v84.9m1.17,1.22V736h-84v87.34h42V812.44c10.5,0,10.5,10.92,10.5,10.92Z"/></g><g id="_653" data-name="653"><path class="cls-19" d="M628.07,738.24H710.9v86.12H680.53c-.19-2.38-1.57-10.92-11-10.92h-.58v10.92H628.07Z"/><path d="M710.9,823.14H681.64c-.38-3.07-2.25-10.91-11.57-10.91H668.9v10.91H629.23v-84.9H710.9v84.9m1.17,1.22V737h-84v87.34h42V813.44c10.5,0,10.5,10.92,10.5,10.92Z"/></g><g id="_655" data-name="655"><path class="cls-19" d="M560.07,737.26h63.11v88.1H600c-.15-2.43-1.19-11.17-8.42-11.17h-.44v11.17H560.07Z"/><path d="M623.18,824.12h-22.3C600.6,821,599.17,813,592.07,813h-.89v11.17H561V737.26h62.22v86.86m.89,1.24V736h-64v89.34h32V814.19c8,0,8,11.17,8,11.17Z"/></g><g id="_673" data-name="673"><path class="cls-19" d="M313.07,675.81h63.11v55.55H353c-.15-1.54-1.19-7.05-8.42-7.05h-.44v7.05H313.07Z"/><path d="M376.18,730.57h-22.3c-.28-2-1.71-7-8.81-7h-.89v7H314V675.81h62.22v54.76m.89.79V675h-64v56.34h32v-7.05c8,0,8,7.05,8,7.05Z"/></g><g id="_632" data-name="632"><path class="cls-19" d="M1158.18,508.4H1234v98h-27.79c-.19-2.71-1.44-12.42-10.12-12.42h-.53v12.42h-37.38Z"/><path d="M1234,605h-26.78c-.35-3.5-2.06-12.42-10.59-12.42h-1.07V605h-36.31V508.4H1234V605m1.07,1.38V507h-76.89v99.34h38.45V593.94c9.61,0,9.61,12.42,9.61,12.42Z"/></g><g id="_624" data-name="624"><path class="cls-19" d="M1236.07,503h-77.79V406h28.52c.18,2.68,1.47,12.29,10.37,12.29h.55V406h38.35Z"/><path d="M1158.28,407.39h27.48c.35,3.46,2.11,12.29,10.87,12.29h1.09V407.39H1235V503h-76.69v-95.6m-1.1-1.37v98.34h78.89V406h-39.44v12.29c-9.86,0-9.86-12.29-9.86-12.29Z"/></g><g id="_634" data-name="634"><path class="cls-19" d="M1148.07,743h-79.88V646h29.28c.19,2.68,1.52,12.29,10.66,12.29h.56V646h39.38Z"/><path d="M1068.19,647.39h28.22c.36,3.46,2.17,12.29,11.16,12.29h1.12V647.39h38.25V743h-78.75v-95.6m-1.12-1.37v98.34h81V646h-40.5v12.29c-10.13,0-10.13-12.29-10.13-12.29Z"/></g><g id="_642" data-name="642"><path class="cls-19" d="M1227.92,945.69v125.24H1099.4V982c3.55-.3,16.29-2.38,16.29-16.71v-.88H1099.4V945.69Z"/><path d="M1101.21,1070.93V983.69c4.59-.57,16.29-3.41,16.29-17.5v-1.76h-16.29v-17h126.71v123.48H1101.21m-1.81,1.76h130.33v-127H1099.4v20.5h16.29c0,15.87-16.29,15.87-16.29,15.87v90.63Z"/></g><g id="_677" data-name="677"><path class="cls-19" d="M315,537.36l-.15,94.4-87.31,1.61,8.3-70.78c2.24-.22,10.34-1.75,11.37-11.87l.06-.61-10,0,1.5-12.78Z"/><path d="M314.94,580.35l-.08,51.41-17.21.32a6.42,6.42,0,0,1,.44,1.52l18-.34v-53A5.32,5.32,0,0,1,314.94,580.35Z"/><path d="M238.81,537.36l-1.65,14,10,0c-1.15,11.24-11.32,11.29-11.32,11.29l-8.47,72.29,17.81-.33a4.64,4.64,0,0,1,.24-1.37c0-.06,0-.12,0-.18l-16.6.3,8-69.54c2.91-.43,10.42-2.51,11.43-12.46l.12-1.23h-1.11l-8.72,0h-.14l1.34-11.59,74.46,0a5.22,5.22,0,0,1,1.85,0v-1.13Z"/></g><g id="_690" data-name="690"><path class="cls-19" d="M608.25,504.69V558.6H432.07V520.33c4.86-.13,22.33-1,22.33-7.2v-.38H432.07v-8.06Z"/><path d="M434.55,558.6V521c6.28-.24,22.33-1.46,22.33-7.53v-.76H434.55v-7.3h173.7V558.6H434.55m-2.48.76H610.73V504.69H432.07v8.82H454.4c0,6.84-22.33,6.84-22.33,6.84v39Z"/></g><g id="_646" data-name="646"><path class="cls-19" d="M882.07,949.69v18.74h-20v.88c0,14.33,15.64,16.41,20,16.71v88.91H724.29V949.69Z"/><path d="M879.84,1074.93H724.29V951.45H879.84v17h-20v1.76c0,14.09,14.38,16.93,20,17.5v87.24m2.23,1.76V986.06s-20,0-20-15.87h20v-20.5h-160v127Z"/></g><g id="_666" data-name="666"><path class="cls-19" d="M117.07,971.36v15.55H105l0,.75c-.22,12.43,9.43,14.27,12.12,14.54v89.15H6.9l16.9-120Z"/><path d="M115.52,1091.35H6.9L23.6,972.79h92.15l0,14.12h-12.1l0,1.5c-.24,12.25,8.61,14.77,12.1,15.27l-.17,87.67m1.55,2v-91.12s-12.38,0-12.13-13.83h12.13v-17H22.49l-17.42,122Z"/></g><g id="_670" data-name="670"><path class="cls-19" d="M119.07,796.36v13.26h-9.4v.64c-.17,10.59,7.32,12.16,9.41,12.39v76H33.49L46.62,796.36Z"/><path d="M117.86,898.65H33.49l13-101.07H118l0,12h-9.4l0,1.28c-.19,10.44,6.69,12.58,9.4,13l-.14,74.74m1.21,1.71V822.68s-9.61,0-9.42-11.78h9.42V796.36H45.6l-13.53,104Z"/></g><g id="_667" data-name="667"><path class="cls-19" d="M118.07,901.36v9.07l-10.95,0v.43c-.12,7.13,8.53,8.16,10.95,8.3v48.14H24.52l8.67-65.75Z"/><path d="M116.74,967.33H24.52l8.56-64.91,83.79-.22,0,8.24h-.15l-9.58,0h-1.21l0,.87c-.13,7,7.82,8.43,10.94,8.71l-.09,47.29m1.33,1V919.22s-11.09,0-11-7.89l11,0v-9.94L32,901.59l-8.93,66.77Z"/></g><g id="_602C" data-name="602C"><path class="cls-19" d="M251.16,448.25l17.64-1.33-1.32,10.26.85-.05c14-.95,17-9.24,17.52-11.5l94.2-7.12-.22,96.22L238.27,535Z"/><path d="M380.05,439.73l-.22,95L240.05,535l12.58-85.77,16-1.19v.14l-1.16,9-.15,1.16,1.71-.12c13.82-.91,17.46-8.62,18.33-11.57l92.68-6.92m2-1.37-96.17,7.26s-1.14,10.4-16.72,11.45l1.31-10.28-19.33,1.46-13.09,88.11,144-.13V438.36Z"/></g><g id="_659" data-name="659"><path class="cls-19" d="M717,949.36l.09,47L429.45,997l-.07-33.4c7.94-.13,36.46-1,36.45-6.35v-.33l-36.46.07,0-7Z"/><path d="M433.5,997l-.07-32.77c10.26-.23,36.46-1.35,36.45-6.65v-.66h-4.05l-31.91.06h-.5V950.6L717,950l.09,46.38L433.5,997m-4.05.67,291.66-.59-.09-47.7-291.67.58,0,7.71,36.46-.08c0,6-36.45,6-36.45,6l.07,34Z"/></g><g id="_643" data-name="643"><path class="cls-19" d="M1094.07,1072.29H968.83V996.36h88.91c.3,2.09,2.38,9.62,16.71,9.62h.88v-9.62h18.74Z"/><path d="M968.83,997.43h87.24c.57,2.7,3.4,9.62,17.5,9.62h1.76v-9.62h17v74.86H968.83V997.43m-1.76-1.07v77h127v-77h-20.5V1006c-15.88,0-15.88-9.62-15.88-9.62Z"/></g><g id="_602D" data-name="602D"><path class="cls-19" d="M439.07,324.7l100.44-.14-17,71-57.68,4.68c-.08-1.7-1.07-7.92-11.35-7.17l-.64.05-.31,8.12-13.47,1.1Z"/><path d="M522.72,394.74l-56.66,4.55c-.22-2.2-1.77-7.9-11.89-7.17l-1.28.09,0,.93-.28,7.13v.11l-12.22,1,.29-76.66,98.87-.14-16.79,70.18m.87.75,7.49-30.92,10-41.21h-102v79l14.71-1.2.35-8.12c11.35-.82,10.75,7.22,10.75,7.22l58.71-4.77Z"/></g><g id="_645" data-name="645"><path class="cls-19" d="M960.07,1072.29h-71V996.36h50.4c.17,2.09,1.35,9.62,9.48,9.62h.5v-9.62h10.62Z"/><path d="M889.07,997.43h49.46c.32,2.7,1.93,9.62,9.92,9.62h1v-9.62h9.62v74.86h-70V997.43m-1-1.07v77h72v-77H948.45V1006c-9,0-9-9.62-9-9.62Z"/></g><g id="_660" data-name="660"><path class="cls-19" d="M297.19,863.36V774.61h79.38v63c-2.19.22-10.07,1.69-10.07,11.84v.63h10.07v13.28Z"/><path d="M376.57,837.58V773.36h-80.5v51.09a5.24,5.24,0,0,1,1.12-.09V774.61h78.26v61.82c-2.83.4-10.06,2.41-10.06,12.4v1.25h10.06v12H328.38a4.32,4.32,0,0,1-.13,1.25h48.32V848.83H366.5C366.5,837.58,376.57,837.58,376.57,837.58Z"/></g><g id="_636" data-name="636"><path class="cls-19" d="M897.71,720.36V671.05h116.36v35c-3.21.12-14.75.94-14.75,6.58V713h14.75v7.38Z"/><path d="M1012.43,671.05V705.4c-4.15.22-14.75,1.34-14.75,6.89V713h14.75v6.68H897.71V671.05h114.72m1.64-.69h-118v50h118v-8.07H999.32c0-6.25,14.75-6.25,14.75-6.25V670.36Z"/></g><g id="_665" data-name="665"><path class="cls-19" d="M119.07,1036.36h14.45v7h.69c11.06,0,12.66-5.48,12.89-7h68.61v55.22H119.07Z"/><path d="M215.71,1037.13v54.45H120.43v-54.45h13.09v7h1.37c10.87,0,13.06-5,13.5-7h67.32m1.36-.77H147.14s0,7-12.25,7v-7H119.07v56h98v-56Z"/></g><g id="_663" data-name="663"><path class="cls-19" d="M345.07,1091.58H224.76v-55.22h85.41c.29,1.52,2.28,7,16.05,7h.85v-7h18Z"/><path d="M224.76,1037.13h83.81c.54,2,3.27,7,16.8,7h1.7v-7h16.3v54.45H224.76v-54.45m-1.69-.77v56h122v-56h-19.7v7c-15.25,0-15.25-7-15.25-7Z"/></g><g id="_625" data-name="625"><path class="cls-19" d="M1149.07,502h-80.86V405h29.64c.19,2.68,1.53,12.29,10.79,12.29h.57V405h39.86Z"/><path d="M1068.21,406.39h28.56c.37,3.46,2.2,12.29,11.3,12.29h1.14V406.39h38.72V502h-79.72v-95.6m-1.14-1.37v98.34h82V405h-41v12.29c-10.25,0-10.25-12.29-10.25-12.29Z"/></g><g id="_633" data-name="633"><path class="cls-19" d="M1237.07,742h-88.64V645h32.5c.21,2.68,1.68,12.29,11.82,12.29h.62V645h43.7Z"/><path d="M1148.43,646.39h31.31c.41,3.46,2.41,12.29,12.39,12.29h1.24V646.39h42.45V742h-87.39v-95.6m-1.25-1.37v98.34h89.89V645h-44.94v12.29c-11.24,0-11.24-12.29-11.24-12.29Z"/></g><g id="_623" data-name="623"><path class="cls-19" d="M1158.18,240.4h88.64v98h-32.49c-.22-2.71-1.68-12.42-11.83-12.42h-.62v12.42h-43.7Z"/><path d="M1246.82,337h-31.31c-.4-3.5-2.41-12.42-12.38-12.42h-1.25V337h-42.45V240.4h87.39V337m1.25,1.38V239h-89.89v99.34h45V325.94c11.23,0,11.23,12.42,11.23,12.42Z"/></g><g id="_654" data-name="654"><path class="cls-19" d="M723.44,947.12H578.11V859.28h53.28c.35,2.42,2.75,11.13,19.39,11.13h1V859.28h71.64Z"/><path d="M578.11,860.52h51.34c.66,3.13,3.95,11.13,20.3,11.13h2V860.52h69.59v86.6H578.11v-86.6m-2-1.24v89.08H723.44V859.28H649.75v11.13c-18.42,0-18.42-11.13-18.42-11.13Z"/></g><g id="_656" data-name="656"><path class="cls-19" d="M577.44,947.12H432.11V859.28h53.28c.35,2.42,2.75,11.13,19.39,11.13h1V859.28h71.64Z"/><path d="M432.11,860.52h51.34c.66,3.13,3.95,11.13,20.3,11.13h2.05V860.52h69.59v86.6H432.11v-86.6m-2-1.24v89.08H577.44V859.28H503.75v11.13c-18.42,0-18.42-11.13-18.42-11.13Z"/></g><g id="_652-2" data-name="652"><path class="cls-19" d="M870.44,947.12H725.11V859.28h53.28c.35,2.42,2.75,11.13,19.39,11.13h1V859.28h71.64Z"/><path d="M725.11,860.52h51.34c.66,3.13,3.95,11.13,20.3,11.13h2V860.52h69.59v86.6H725.11v-86.6m-2-1.24v89.08H870.44V859.28H796.75v11.13c-18.42,0-18.42-11.13-18.42-11.13Z"/></g><g id="_686" data-name="686"><path class="cls-19" d="M891.44,734.19H718.5V651.36h63.4c.41,2.28,3.28,10.5,23.07,10.5h1.22v-10.5h85.25Z"/><path d="M718.5,652.52h61.09c.79,3,4.7,10.5,24.16,10.5h2.44v-10.5H889v81.67H718.5V652.52m-2.43-1.16v84H891.44v-84H803.75v10.5c-21.92,0-21.92-10.5-21.92-10.5Z"/></g><g id="_684" data-name="684"><path class="cls-19" d="M714.58,734.78,613,733.58l1-83.81,37.23.44c.22,2.31,1.8,10.65,13.43,10.78h.71l.13-10.62,50.06.59Z"/><path d="M614,651l35.87.42c.43,3,2.64,10.66,14.07,10.79l1.43,0V661l.11-9.3v-.14l48.64.57-1,82.63L613,733.58,614,651m-1.42-1.2-1,85,103,1.21,1-85-51.49-.61L663.94,661c-12.87-.15-12.75-10.77-12.75-10.77l-38.62-.46Z"/></g><g id="_682" data-name="682"><path class="cls-19" d="M611.07,733.18H524.29V649.36H556.1c.21,2.31,1.65,10.62,11.58,10.62h.61V649.36h42.78Z"/><path d="M524.29,650.54h30.65c.4,3,2.36,10.62,12.13,10.62h1.22V650.54h41.55v82.64H524.29V650.54m-1.22-1.18v85h88v-85h-44V660c-11,0-11-10.62-11-10.62Z"/></g><g id="_680" data-name="680"><path class="cls-19" d="M521.07,733.18H434.29V649.36H466.1c.21,2.31,1.65,10.62,11.58,10.62h.61V649.36h42.78Z"/><path d="M434.29,650.54h30.65c.4,3,2.36,10.62,12.13,10.62h1.22V650.54h41.55v82.64H434.29V650.54m-1.22-1.18v85h88v-85h-44V660c-11,0-11-10.62-11-10.62Z"/></g><g id="_605C" data-name="605C"><path class="cls-19" d="M288.41,69.36V46.45c2.64-.15,12.13-1.19,12.13-8.34v-.44H288.41V6.86h95.66v62.5Z"/><path d="M382.72,6.86V68.48H288.41V46.4c3.42-.28,12.13-1.7,12.13-8.73v-.88H288.41V6.86h94.31M384.07,6h-97V37.67h12.12c0,7.92-12.12,7.92-12.12,7.92V69.36h97V6Z"/></g><g id="_605D" data-name="605D"><path class="cls-19" d="M288.41,134.36V111.45c2.64-.15,12.13-1.19,12.13-8.34v-.44H288.41V71.86h95.66v62.5Z"/><path d="M382.72,71.86v61.62H288.41V111.4c3.42-.28,12.13-1.7,12.13-8.73v-.88H288.41V71.86h94.31m1.35-.88h-97v31.69h12.12c0,7.92-12.12,7.92-12.12,7.92v23.77h97V71Z"/></g><g id="_608" data-name="608"><path class="cls-19" d="M241.2,178.05l43-.54c.24,2.26,1.74,10.35,11.11,10.18h.57l-.19-10.38,40.33-.74,1.5,81.91L255.7,260Z"/><path d="M337.49,257.31l-80.66,1.48L241.35,178l42.9-.52c.43,2.91,2.42,10.34,11.62,10.17l1.15,0,0-1.15-.16-9.09v-.14l39.18-.72,1.48,80.75m1.18,1.13-1.53-83.05-41.48.76.19,10.38c-10.37.19-10.56-10.19-10.56-10.19l-46.11.55L255.7,260l83-1.53Z"/></g><g id="_608D" data-name="608D"><path class="cls-19" d="M588.43,134.36V111.45c2.66-.15,12.25-1.19,12.25-8.34v-.44H588.43V71.86h96.64v62.5Z"/><path d="M683.71,71.86v61.62H588.43V111.4c3.45-.28,12.25-1.7,12.25-8.73v-.88H588.43V71.86h95.28m1.36-.88h-98v31.69h12.25c0,7.92-12.25,7.92-12.25,7.92v23.77h98V71Z"/></g><g id="_615" data-name="615"><path class="cls-19" d="M565.71,240.36V217.45c3.21-.15,14.75-1.19,14.75-8.34v-.44H565.71V177.86H682.07v62.5Z"/><path d="M680.43,177.86v61.62H565.71V217.4c4.15-.28,14.75-1.7,14.75-8.73v-.88H565.71V177.86H680.43m1.64-.88h-118v31.69h14.75c0,7.92-14.75,7.92-14.75,7.92v23.77h118V177Z"/></g><g id="_691" data-name="691"><path class="cls-19" d="M433.2,501.36l-.9-24.27c4.21-.26,19.66-1.8,19.4-9.58V467l-19.73.71-1.23-33.13,183.34-13.1v79.86Z"/><path d="M611,421.72l0,78.53-177.88.18L432.3,477c5.45-.44,19.64-2.35,19.39-10l0-1-2.23.09-17.23.63h-.27l-1.19-32.19L611,421.72m3.08-1.36L428.54,433.8l1.27,34,19.64-.7c.29,8.6-19.32,9.13-19.32,9.13l.94,25.12h183v-81Z"/></g><g id="_609B" data-name="609B"><path class="cls-19" d="M403.7,239.36v-50.3h19.56a6.68,6.68,0,0,0,7.12,6.38h.38v-6.38h26.31v50.3Z"/><path d="M456.32,189.06v49.59H403.7V189.06h18.85c.25,1.8,1.45,6.38,7.46,6.38h.75v-6.38h25.56m.75-.7H430v6.37a6.37,6.37,0,0,1-6.77-6.37H403v51h54.12v-51Z"/></g><g id="_609A" data-name="609A"><path class="cls-19" d="M344.7,239.36v-50.3h19.56a6.68,6.68,0,0,0,7.12,6.38h.38v-6.38h26.31v50.3Z"/><path d="M397.32,189.06v49.59H344.7V189.06h18.85c.25,1.8,1.45,6.38,7.46,6.38h.75v-6.38h25.56m.75-.7H371v6.37a6.37,6.37,0,0,1-6.77-6.37H344v51h54.12v-51Z"/></g><g id="_616A" data-name="616A"><path class="cls-19" d="M686.7,237.36v-50.3h19.56a6.68,6.68,0,0,0,7.12,6.38h.38v-6.38h26.31v50.3Z"/><path d="M739.32,187.06v49.59H686.7V187.06h18.85c.25,1.8,1.45,6.38,7.46,6.38h.75v-6.38h25.56m.75-.7H713v6.37a6.37,6.37,0,0,1-6.77-6.37H686v51h54.12v-51Z"/></g><g id="_609A-2" data-name="609A"><path class="cls-19" d="M753.7,236.36v-50.3h19.56a6.68,6.68,0,0,0,7.12,6.38h.38v-6.38h26.31v50.3Z"/><path d="M806.32,186.06v49.59H753.7V186.06h18.85c.25,1.8,1.45,6.38,7.46,6.38h.75v-6.38h25.56m.75-.7H780v6.37a6.37,6.37,0,0,1-6.77-6.37H753v51h54.12v-51Z"/></g><g id="_611" data-name="611"><path class="cls-19" d="M466.51,219.91H516.8v14.3c-1.39.09-6.37.74-6.37,5.2v.28h6.37v19.23H466.51Z"/><path d="M516.8,258.37H467.22V219.91H516.8v13.78c-1.79.17-6.37,1.06-6.37,5.45v.55h6.37v18.68m.71.55V239.14h-6.38c0-4.95,6.38-4.95,6.38-4.95V219.36h-51v39.56Z"/></g><g id="_614" data-name="614"><path class="cls-19" d="M613.51,293.66H563.22V275.59c1.38-.12,6.37-.94,6.37-6.58v-.35h-6.37v-24.3h50.29Z"/><path d="M563.22,245.05H612.8v48.61H563.22V276.24c1.79-.22,6.37-1.34,6.37-6.88v-.7h-6.37V245.05m-.71-.69v25h6.37c0,6.25-6.37,6.25-6.37,6.25v18.75h51v-50Z"/></g><g id="_602E" data-name="602E"><path class="cls-19" d="M437.18,362.36v38.95H414c-.15-1.08-1.19-4.94-8.42-4.94h-.44v4.94H374.07V362.36Z"/><path d="M375,401.31V362.9h62.22v38.41h-22.3c-.28-1.39-1.71-4.94-8.81-4.94h-.89v4.94H375m-.89.55h32v-4.94c8,0,8,4.94,8,4.94h24v-39.5h-64v39.5Z"/></g><g id="_610" data-name="610"><path class="cls-19" d="M466.51,177.91H516.8v14.3c-1.39.09-6.37.74-6.37,5.2v.28h6.37v19.23H466.51Z"/><path d="M516.8,216.37H467.22V177.91H516.8v13.78c-1.79.17-6.37,1.06-6.37,5.45v.55h6.37v18.68m.71.55V197.14h-6.38c0-4.95,6.38-4.95,6.38-4.95V177.36h-51v39.56Z"/></g><g id="_617" data-name="617"><path class="cls-19" d="M812.89,242.36v-64.1h21.33c.13,1.77,1.1,8.12,7.76,8.12h.41v-8.12h28.68v64.1Z"/><path d="M870.25,178.26v63.19H812.89V178.26h20.55c.26,2.29,1.58,8.12,8.13,8.12h.82v-8.12h27.86m.82-.9h-29.5v8.12c-7.38,0-7.38-8.12-7.38-8.12H812.07v65h59v-65Z"/></g><g id="_618" data-name="618"><path class="cls-19" d="M876.61,239.36V178.22h40.13c.26,1.68,2.07,7.75,14.6,7.75h.77v-7.75h54v61.14Z"/><path d="M984.53,178.22V238.5H876.61V178.22h38.67c.49,2.18,3,7.75,15.29,7.75h1.54v-7.75h52.42m1.54-.86h-55.5v7.75c-13.88,0-13.88-7.75-13.88-7.75H875.07v62h111v-62Z"/></g><g id="_621" data-name="621"><path class="cls-19" d="M904.47,323.94l.57-68.8,106.74,0-19.32,32.72c-2.5.19-11.73,1.43-15.77,9.24l-.24.46,10.31-.06-15.27,25.86Z"/><path d="M1010.3,255.12l-18.49,31.74c-3.31.35-12.1,2-16,9.77l-.46.91h1.14l9-.05h.14l-14.71,25.25-66.43.59.56-68.19,105.26,0m2.39-1.55H903.52v70.37l68-.6,15.81-26.77-10.37.06c4.53-8.77,15.54-8.82,15.54-8.82l20.22-34.24Z"/></g><g id="_606B" data-name="606B"><path class="cls-19" d="M482.41,5.54V28.45c-2.63.14-12.12,1.18-12.12,8.33v.44h12.12V68H386.76V5.54Z"/><path d="M388.11,68V6.42h94.3V28.49c-3.41.29-12.12,1.7-12.12,8.73v.88h12.12V68h-94.3m-1.35.88h97V37.22H471.64c0-7.92,12.12-7.92,12.12-7.92V5.54h-97V68.91Z"/></g><g id="_606A" data-name="606A"><path class="cls-19" d="M482.41,70.54V93.45c-2.63.14-12.12,1.18-12.12,8.33v.44h12.12V133H386.76V70.54Z"/><path d="M388.11,133V71.42h94.3V93.49c-3.41.29-12.12,1.7-12.12,8.73v.88h12.12V133h-94.3m-1.35.88h97V102.22H471.64c0-7.92,12.12-7.92,12.12-7.92V70.54h-97v63.37Z"/></g><g id="_607A" data-name="607A"><path class="cls-19" d="M784.41,71.54V94.45c-2.63.14-12.12,1.18-12.12,8.33v.44h12.12V134H688.76V71.54Z"/><path d="M690.11,134V72.42h94.3V94.49c-3.41.29-12.12,1.7-12.12,8.73v.88h12.12V134h-94.3m-1.35.88h97V103.22H773.64c0-7.92,12.12-7.92,12.12-7.92V71.54h-97v63.37Z"/></g><g id="_628" data-name="628"><path class="cls-19" d="M1003.52,472.54v22.71c-3,.14-13.91,1.17-13.91,8.26V504h13.91v30.53H893.76V472.54Z"/><path d="M895.31,534.48V473.41h108.21v21.88c-3.91.28-13.91,1.69-13.91,8.66v.87h13.91v29.66H895.31m-1.55.88h111.31V504H991.15c0-7.86,13.92-7.86,13.92-7.86V472.54H893.76v62.82Z"/></g><g id="_661" data-name="661"><path class="cls-19" d="M374.41,877.36v18.07c-3.25.12-14.91.94-14.91,6.58v.35h14.91v24.3H256.76v-49.3Z"/><path d="M258.42,926.66V878.05h116v17.42c-4.2.22-14.91,1.34-14.91,6.89v.69h14.91v23.61h-116m-1.66.7H376.07v-25H361.15c0-6.25,14.92-6.25,14.92-6.25V877.36H256.76v50Z"/></g><g id="_627" data-name="627"><path class="cls-19" d="M1007.62,396.36v15.38c-2.83.1-13,.79-13,5.6v.29h13v20.69H905.07v-42Z"/><path d="M906.51,438.32V397h101.11v14.82c-3.66.19-13,1.14-13,5.86v.59h13v20.1H906.51m-1.44.59h104V417.63h-13c0-5.32,13-5.32,13-5.32V396.36h-104v42.55Z"/></g><g id="_606C" data-name="606C"><path class="cls-19" d="M588.13,69.56V46.65c2.67-.15,12.29-1.19,12.29-8.34v-.44H588.13V7.06h96.94v62.5Z"/><path d="M683.7,7.06V68.68H588.13V46.6c3.46-.28,12.29-1.7,12.29-8.73V37H588.13V7.06H683.7m1.37-.88H586.76V37.87h12.29c0,7.92-12.29,7.92-12.29,7.92V69.56h98.31V6.18Z"/></g><g id="_607C" data-name="607C"><path class="cls-19" d="M907.34,68.56V45.65c3.08-.15,14.16-1.19,14.16-8.34v-.44H907.34V6.06h111.73v62.5Z"/><path d="M1017.49,6.06V67.68H907.34V45.6c4-.28,14.16-1.7,14.16-8.73V36H907.34V6.06h110.15m1.58-.88H905.76V36.87h14.16c0,7.92-14.16,7.92-14.16,7.92V68.56h113.31V5.18Z"/></g><g id="_607D" data-name="607D"><path class="cls-19" d="M908.34,135.56V112.65c3.08-.15,14.16-1.19,14.16-8.34v-.44H908.34V73.06h111.73v62.5Z"/><path d="M1018.49,73.06v61.62H908.34V112.6c4-.28,14.16-1.7,14.16-8.73V103H908.34V73.06h110.15m1.58-.88H906.76v31.69h14.16c0,7.92-14.16,7.92-14.16,7.92v23.77h113.31V72.18Z"/></g><g id="_620" data-name="620"><path class="cls-19" d="M1071.25,236.36v-37.3c4.88-.24,22.42-1.93,22.42-13.57v-.72h-22.42V134.62h176.82V236.36Z"/><path d="M1245.58,134.62v100.3H1071.25V199c6.31-.46,22.42-2.76,22.42-14.21v-1.43h-22.42V134.62h174.33m2.49-1.44H1068.76v51.59h22.41c0,12.9-22.41,12.9-22.41,12.9v38.69h179.31V133.18Z"/></g><g id="_607B" data-name="607B"><path class="cls-19" d="M784.41,6.18V29.09c-2.63.15-12.12,1.19-12.12,8.34v.44h12.12V68.68H688.76V6.18Z"/><path d="M690.11,68.68V7.06h94.3V29.14c-3.41.28-12.12,1.7-12.12,8.73v.88h12.12V68.68h-94.3m-1.35.88h97V37.87H773.64c0-7.92,12.12-7.92,12.12-7.92V6.18h-97V69.56Z"/></g><g id="_605B" data-name="605B"><path class="cls-19" d="M152.37,7.24l3.52,21.93c-2.73.16-12.44,1.21-11.34,8.06l.07.42,12.61-.07L162,67.08l-99.53.56L52.84,7.8Z"/><path d="M63.83,67.63l-9.45-59,98.13-.56,3.38,21.14c-3.5.29-12.35,1.7-11.27,8.43l.13.84h1.4l11-.07h.18L162,67.08l-98.13.55m-1.26.85,100.93-.57-4.87-30.34L146,37.64c-1.22-7.58,11.4-7.65,11.4-7.65L153.77,7.23,52.84,7.8l9.73,60.68Z"/></g><g id="_605A" data-name="605A"><path class="cls-19" d="M162.37,69.24l3.52,21.93c-2.73.16-12.44,1.21-11.34,8.06l.07.42,12.61-.07,4.73,29.5-99.53.56L62.84,69.8Z"/><path d="M73.83,129.63l-9.45-59,98.13-.56,3.38,21.14c-3.5.29-12.35,1.7-11.27,8.43l.13.84h1.4l11-.07h.18L172,129.08l-98.13.55m-1.26.85,100.93-.57-4.87-30.34L156,99.64c-1.22-7.58,11.4-7.65,11.4-7.65l-3.65-22.76L62.84,69.8l9.73,60.68Z"/></g><g id="_604" data-name="604"><path class="cls-19" d="M172.37,133.24l3.52,21.93c-2.73.16-12.44,1.21-11.34,8.06l.07.42,12.61-.07,4.73,29.5-99.53.56L72.84,133.8Z"/><path d="M83.83,193.63l-9.45-59,98.13-.56,3.38,21.14c-3.5.29-12.35,1.7-11.27,8.43l.13.84h1.4l11-.07h.18L182,193.08l-98.13.55m-1.26.85,100.93-.57-4.87-30.34-12.61.07c-1.22-7.58,11.4-7.65,11.4-7.65l-3.65-22.76-100.93.57,9.73,60.68Z"/></g><g id="_603" data-name="603"><path class="cls-19" d="M183.37,198.24l3.52,21.93c-2.73.16-12.44,1.21-11.34,8.06l.07.42,12.61-.07,4.73,29.5-99.53.56L83.84,198.8Z"/><path d="M94.83,258.63l-9.45-59,98.13-.56,3.38,21.14c-3.5.29-12.35,1.7-11.27,8.43l.13.84h1.4l11-.07h.18L193,258.08l-98.13.55m-1.26.85,100.93-.57-4.87-30.34-12.61.07c-1.22-7.58,11.4-7.65,11.4-7.65l-3.65-22.76-100.93.57,9.73,60.68Z"/></g><path id="_612" data-name="612" class="cls-20" d="M454.84,262.18V243.1H340.28v52.07H516.55V277.88H493.89v-1.12c0-6,17.73-6.92,22.66-7v-7.54Z"/><g id="_657" data-name="657"><path class="cls-19" d="M523,821.36V815h-.62c-10.18,0-11.66,5-11.87,6.38h-.84C509.44,820,508,815,497.78,815h-.62v6.38H433.32v-50.3h19.9v6.38h.63c10.18,0,11.65-5,11.86-6.38h54.67c.21,1.39,1.68,6.38,11.86,6.38h.63v-6.38h23.2v50.3Z"/><path d="M554.81,771.06v49.59H523v-6.38h-1.25c-10,0-12,4.58-12.42,6.38h.27c-.4-1.8-2.41-6.38-12.42-6.38h-1.25v6.38H433.32V771.06H452v6.38h1.26c10,0,12-4.58,12.42-6.38h53.54c.4,1.8,2.42,6.38,12.42,6.38h1.26v-6.38h21.94m1.26-.7H531.61v6.37c-11.27,0-11.27-6.37-11.27-6.37H464.5s0,6.37-11.27,6.37v-6.37H432.07v51h65.09V815c11.27,0,11.27,6.38,11.27,6.38h2s0-6.38,11.27-6.38v6.38h34.34v-51Z"/></g><g id="_671" data-name="671"><polygon class="cls-19" points="201.95 772.4 296.18 772.41 296.18 825.3 194 825.07 201.95 772.4"/><path d="M197.53,801.71l4.42-29.3h24.4a2.16,2.16,0,0,1-.5-1.06,1.42,1.42,0,0,1,.13-.81H200.11l-4.79,31A5.86,5.86,0,0,1,197.53,801.71Z"/><path d="M283,770.54a1.87,1.87,0,0,1-.13,1.87H294l-.17,50.69L263.17,823a1.63,1.63,0,0,1,0,2.2l33,.07V770.54Z"/></g><g id="_672" data-name="672"><polygon class="cls-19" points="194.13 823.57 297.07 823.36 297.07 875.39 195.84 874.52 194.13 823.57"/><path d="M195.9,872.52h-.06l-1-29.16a6.44,6.44,0,0,1-2.27.12l1.07,30.95,2.18,0A5.69,5.69,0,0,1,195.9,872.52Z"/><path d="M294.68,825.39v.22a5.89,5.89,0,0,1,2.39-.28v-2l-33.63.07a1.4,1.4,0,0,1-.1,2Z"/></g><g id="_640" data-name="640"><rect class="cls-19" x="1164.3" y="892.68" width="192.62" height="48.67"/><path d="M1168,941.36h182.89a6.52,6.52,0,0,1-.28-1.72v-.16H1167.9C1167.91,940.11,1167.94,940.73,1168,941.36Z"/><path d="M1167.77,890.81l0,1.87h184.65c0-.62,0-1.24,0-1.87Z"/></g><rect id="_607" data-name="607" class="cls-21" x="812.59" y="52.88" width="78.96" height="22" transform="translate(773.91 914.75) rotate(-89.04)"/><rect id="_606" data-name="606" class="cls-22" x="495.57" y="54.9" width="78.96" height="18.02" transform="translate(462.18 597.82) rotate(-89.04)"/><rect id="_605" data-name="605" class="cls-23" x="191.09" y="54.41" width="78.96" height="18.99" transform="translate(162.81 293.37) rotate(-89.04)"/></g></g></g></g></svg>